<svg id="Layer_1" data-name="Layer 1" xmlns="http://www.w3.org/2000/svg" viewBox="0 0 1000 921.15"><defs><style>.cls-1{fill:#fff;}</style></defs><path class="cls-1" d="M986.86,447.16c-10.62,35.66-18.61,52.83-52.62,72.38-53.56,30.79-102.35,1-131.22-46.64a68.59,68.59,0,0,1-4.25-9.33c9.34-7.57,30.64-18.55,42-24.81l74.77-41.23C928,390.65,946.64,381,958,373.34c-24.39-64.57-89.26-94.39-153.94-69-37.67,14.75-52.33,42.06-72.4,75.4q-24,40.28-47.36,80.94c-9.34,16.14-20.23,36.25-31,50.88-18-32.77-37.48-66.44-56-99-13.26-23.3-36.38-66.77-54.14-85.09a107.31,107.31,0,0,0-48-28.79c-16-4.63-38.33-6.15-54.78-4.33-47.83,4-83.16,10.88-114.9,48.56A134.38,134.38,0,0,0,294,442.49c5.73,65.75,44.62,108.34,109.37,119.5,54.82,9.45,117.6-2,154.61-47,6-7.46,11.29-14.55,15.22-23.36-12.77-27.57-32.7-57.77-46.31-86-1.79,42.26.19,88.81-34.32,120.31A78.18,78.18,0,0,1,435,546.53a76,76,0,0,1-53.17-25.37c-23.07-25.82-29.85-67.77-26.75-101.6,2.79-30.52,8-61.7,32.24-83.93,28.65-26.22,83.46-26.38,110.38,2.85,9.69,10.52,16.4,27.65,24.34,39.66,26,44.08,50.22,89.15,75.38,133.7,6.17,10.93,19.14,33.64,24.78,43.51a8.8,8.8,0,0,0,8.17,4.43c8-.47,22.6-1.38,29.47-2.08a5.09,5.09,0,0,0,3.82-2.42c29.43-47.92,55.82-98.45,84.81-146.68,13.49-22.47,25.35-47.93,42.09-68,17.67-21.16,47.23-23.5,70.65-11,19.88,12.12,31.89,25.44,41.21,47.12-14.23,9.73-31.56,19.37-46.58,28.15l-71.2,41.59c-11.95,7-31,17.4-41.94,25.31,16.19,36.89,46.29,73.62,84.89,88.39C882,581,950.67,545.25,985.68,503.5c18.29-21.82,19.47-32.72,1.19-56.34Z"/><path class="cls-1" d="M267.37,530.08c9.53-4.78,26.81-15.53,34.21-23.21.09-.62.17-1.25.24-1.87-13.64-26.58-18.1-42.24-18.47-71.92-5.8,15.09-11.69,29.68-21.52,42.71-40.19,53.37-115.47,62.48-177.47,58-8.08-.59-18.37-1.21-26-3.15q-1-37.41-1.13-74.85c0-25.11,2.11-213.37,3.88-236.86a1.91,1.91,0,0,1,1.79-1.83c4.89-.18,18.62-.7,23.79-.83,63.78-1.66,150.46,2.74,185.2,65.68,16.84,30.51,19.21,66.83,18.88,100.74,19-42.7,21.42-43.62,54.58-73.54-10.36-38.63-31.85-72.59-67.05-92.9A155.4,155.4,0,0,0,231.58,199c-27.54-5.62-57.67-6.3-85.78-6.7-47.93-.69-96.49,1.44-144.39.09,2,16,2.27,33.1,3.26,49.21C7.34,285.3,6.36,328.42,6.13,372.1c-.32,61.95-.24,121.14-5.9,183.06,87.71-2.74,184.67,16.26,267.13-25.09h0Z"/><path class="cls-1" d="M7.81,174.08c61.26,2.47,123.76-6.09,185-2.62,19.22,1.09,38.79,3.15,57.27,8.73a155.3,155.3,0,0,1,70.71,44.44C338.05,243.55,357.1,276,361,301.58c0,0,14.31-5.39,21.05-8-19.44-52.45-50.22-98.69-102.34-124.17C246.84,153.35,205,155.27,169.05,156.5q-35.33,1.13-70.62,2.81c-17.36.84-41.18,1.83-56.6,1.63,9.06-10.78,19.88-20.55,30.66-29.67,61.27-51.84,130.33-102.74,213-109.75,37-3.14,73,3.61,102.11,28.06,2.44,2.08,4.81,4.23,7.14,6.42,33.53,34.17,49.88,78.31,60.77,124.15,2.8,11.8,5.95,31.91,9.47,43.4a1.74,1.74,0,0,0,2.56,1c19.06-11.36,26-20.77,43.47-34.78,24-19.31,64.23-36.43,95.46-28.28,21.21,5.54,38.83,24.57,49.93,43,10.5,17.41,8,37.41,24.34,51.69,5.83,5.08,12,8.27,17.9,12.35a.87.87,0,0,1-.53,1.59c-7.48-.42-15-1-22.21,1.5-22.09,7.51-33.71,25.72-48.48,42.47a385.47,385.47,0,0,1-33.37,33,60.08,60.08,0,0,0,10.77,16.64c23.7-16.23,48.7-57.38,75-80.09,3.38,13.11,7.92,31.87,12.26,45.38a1.16,1.16,0,0,0,2.22-.07c2.33-9.64,2.26-16.65,1.77-27.37-.22-4.58-1.31-19,1-21.8,8.53-4.62,27.25,9.67,31.19-.83.89-2.38-.24-6.65-1.87-8.9-9.17-12.67-26.86-19.55-37.42-29.61-4.5-4.29-12.17-23.26-15.48-29.48-13.87-26-38.14-55-68.76-60.55-29.91-5.43-71.55,11-96.25,27.21-10.17,6.66-15.64,13.87-28,20.34-7.16-12.42-11.61-37.21-17-52C433.79,64,383-5,287.19.29c-86.39,5.65-166.86,65-229,121.36-15.53,14.08-34.28,30.44-48,46.06C9,169,7.91,170.46,6.8,171.86A1.37,1.37,0,0,0,7.81,174.08Z"/><path class="cls-1" d="M401.82,570.51a163.79,163.79,0,0,1-22.9-6.86,1.41,1.41,0,0,0-1.92,1.07c-8.55,50.36-12,101.08-5.88,152.08.61,5,1.27,10.54,1.59,15.62a1.08,1.08,0,0,1-1.1,1.12c-101.72-1.64-186.8-43.46-241.17-130.78a.87.87,0,0,1,.52-1.29c15.27-3.8,29.83-6,47.52-9.44,48.1-9.28,97.32-25.67,134.51-58.87l2.66-2.61a2.38,2.38,0,0,0-1.58-4.08l-21.17-.81a9.72,9.72,0,0,0-6.87,2.46c-4.38,3.91-12.87,11.18-18.81,15.56-51.07,37.66-103,41.7-159,46a1.42,1.42,0,0,0-1.27,1.78c30.36,114.2,173.4,160.08,279.41,156.61a1.15,1.15,0,0,0,1.1-1.31c-7.63-57.38-6.86-115.57,13.89-170.22l1.63-3.69a1.7,1.7,0,0,0-1.2-2.35Z"/><path class="cls-1" d="M588.89,227.59c-.12,2.58,11.74,8.07,16,9.56s18-1.8,18.91-11.26-5.62-18-12.34-23.6-18-3.67-31.72,0-25.47,5.9-26.17,8.56,1.45,4.46,7.61,3.6,18.2-3.32,27.36-.9,11.67,3.41,10.25,4.59-9.68,5.81-9.86,9.45Z"/><path class="cls-1" d="M706.54,247.19a26.88,26.88,0,0,0,6.74,3c3.13.62,5.23-2.43,8.28-1.09s8.91,11.72,20.08,18c8.29,4.7,14.64,5.19,18.16,4.92a1,1,0,0,0,.4-1.93c-10.51-5.7-12.46-10.54-14.26-17.06a53.26,53.26,0,0,0-5.78-13s3.75-2.66,7.35-5.24L759.87,226a2.37,2.37,0,0,1,3.18.39c1.46,1.72,3.59,4.21,4.14,4.67.85.7,10.07,3.28,24.14-1.72,8.35-3,12.87-7.7,15.16-11.05a1.17,1.17,0,0,0-1.56-1.67c-5.37,2.9-10.07,3.37-16,2.4a31.64,31.64,0,0,1-11-4.25,2,2,0,0,1-.33-3.16c1.71-1.56,4.49-4.16,8.13-7.67a68.87,68.87,0,0,0,7.43-8.39.55.55,0,0,0-.76-.78c-5.21,3.78-13.77,9.82-21,13.54-6.36,3.3-14.17,7.32-17.81,9.19a2,2,0,0,1-2.75-1.14c-.85-2.64-2.34-7.34-3.82-12.42-1.7-5.8-3.84-14.37-4.8-18.29a1.15,1.15,0,0,0-2-.48c-5.49,6.4-10.13,15.46-9.55,22.21.46,5.41,2.83,11.75,4,14.71a2.22,2.22,0,0,1-.85,2.71c-3.16,2.06-10.25,6.77-13.35,9.45s-10.88,8.46-14.13,10.85a1.24,1.24,0,0,0,.12,2.08h0Z"/><path class="cls-1" d="M487.89,628.17q0-12.06,6.66-18.41T514,603.4q12.24,0,18.76,6.56t6.52,19q0,11.5-6.77,17.77T513.24,653q-12.11,0-18.72-6.45T487.89,628.17Zm25.92-20.62q-15.67,0-15.68,20.62,0,10.1,3.87,15.39t11.24,5.29q7.74,0,11.75-5.06T529,629Q529,607.55,513.81,607.55Z"/><path class="cls-1" d="M543.75,604.14h11.1l-.15.53a6.72,6.72,0,0,0,.43,1.54l13.11,37,13.5-37a5.55,5.55,0,0,0,.46-1.74v-.33h5.37a6.54,6.54,0,0,0-1.14,2.07l-16,44a8.85,8.85,0,0,0-.51,1.67v.41h-9.09V652a5.86,5.86,0,0,0-.43-1.74l-15.54-44c-.24-.62-.4-1-.5-1.2A5.89,5.89,0,0,0,543.75,604.14Z"/><path class="cls-1" d="M593.8,652.33a4.37,4.37,0,0,0,.43-2.08V604.94a3.22,3.22,0,0,0-.43-.8l27.57-.07v4.35a12.85,12.85,0,0,1-1.43-.21,8.32,8.32,0,0,0-1.51-.12H604v17.8h14.54a14.69,14.69,0,0,0,2.86-.27v4.29a12.24,12.24,0,0,0-2-.21H604V648h14.39a12.79,12.79,0,0,0,3-.33v4.62Z"/><path class="cls-1" d="M702.29,628.17q0-12.06,6.66-18.41t19.4-6.36q12.25,0,18.76,6.56t6.52,19q0,11.5-6.77,17.77T727.64,653q-12.1,0-18.73-6.45T702.29,628.17Zm25.92-20.62q-15.68,0-15.68,20.62,0,10.1,3.86,15.39t11.25,5.29q7.73,0,11.74-5.06t4-14.82Q743.39,607.55,728.21,607.55Z"/><path class="cls-1" d="M756.35,609v-4.89h38V609a15.52,15.52,0,0,0-3-.27H780.2v41.56a4.37,4.37,0,0,0,.36,2.08H770.17a5.45,5.45,0,0,0,.36-2.08V608.69h-11Z"/><path class="cls-1" d="M801.32,609v-4.89h38V609a15.52,15.52,0,0,0-3-.27H825.17v41.56a4.37,4.37,0,0,0,.36,2.08H815.14a5.45,5.45,0,0,0,.36-2.08V608.69h-11Z"/><path class="cls-1" d="M834.69,652.33a5.83,5.83,0,0,0,.68-.94,6.61,6.61,0,0,0,.54-1.14l16.68-44a5.93,5.93,0,0,0,.43-1.67v-.4h8.45a3.7,3.7,0,0,0,0,.6,8.42,8.42,0,0,0,.54,1.47l17.18,44a5.78,5.78,0,0,0,1.15,2.08H869.21a6.58,6.58,0,0,0-.43-2.09L864,637.6H845.33l-4.79,12.67a5.38,5.38,0,0,0-.48,1.72v.34Zm19.9-39.57-7.71,20.76h15.6Z"/><path class="cls-1" d="M922.84,606v6.5l-2.72-1.74a22.66,22.66,0,0,0-11.24-2.88,17.15,17.15,0,0,0-9.45,2.61q-7.59,4.82-7.59,18.74,0,9.3,4.08,14.38t11.6,5.09a16.44,16.44,0,0,0,3.83-.4,19.17,19.17,0,0,0,3.76-1.41V628a4.52,4.52,0,0,0-.43-2.14h10c-.14.45-.24.76-.28.94a5.92,5.92,0,0,0-.07,1.2V646.1c0,.58,0,1.12,0,1.61a6.88,6.88,0,0,0,.54,2l-3.44,1a52.24,52.24,0,0,1-7.62,1.67,54.11,54.11,0,0,1-7.77.6q-11.4,0-17.94-6.59t-6.55-18.1q0-11.44,7.12-18.17T908,603.4c1.53,0,2.91.06,4.15.17a57.24,57.24,0,0,1,5.73,1c.53.13,1.19.31,2,.54S921.7,605.61,922.84,606Z"/><path class="cls-1" d="M934.23,652.33a4.49,4.49,0,0,0,.43-2.08V604.94a3.22,3.22,0,0,0-.43-.8l27.57-.07v4.35a13,13,0,0,1-1.44-.21,8.21,8.21,0,0,0-1.5-.12H944.4v17.8h14.53a14.72,14.72,0,0,0,2.87-.27v4.29a12.34,12.34,0,0,0-2-.21H944.4V648h14.39a12.79,12.79,0,0,0,3-.33v4.62Z"/><path class="cls-1" d="M479.14,728.8a5.89,5.89,0,0,0,.68-.93,6.57,6.57,0,0,0,.53-1.14l16.69-44a5.93,5.93,0,0,0,.43-1.67v-.4h8.45a5.47,5.47,0,0,0,0,.6,10.77,10.77,0,0,0,.54,1.47l17.19,44a5.64,5.64,0,0,0,1.14,2.07H513.65a6.32,6.32,0,0,0-.43-2.08l-4.78-12.64H489.78L485,726.74a5.67,5.67,0,0,0-.47,1.73v.33ZM499,689.24,491.33,710h15.59Z"/><path class="cls-1" d="M521.39,680.62H532.7a5,5,0,0,0,.64,2.07l10.08,19.5L554,682.7a8.13,8.13,0,0,0,.79-2.08h5.37a13,13,0,0,0-1.36,2.07l-13.25,25v19a5.08,5.08,0,0,0,.29,2.07H535.49a5.36,5.36,0,0,0,.36-2.07V707.92l-13.17-25.23a5.87,5.87,0,0,0-.72-1.33Z"/><path class="cls-1" d="M644.19,704.65q0-12.06,6.66-18.41t19.41-6.36q12.24,0,18.76,6.56t6.52,19q0,11.5-6.77,17.77t-19.23,6.25q-12.09,0-18.72-6.45T644.19,704.65ZM670.12,684q-15.69,0-15.69,20.62,0,10.1,3.87,15.39t11.24,5.28q7.74,0,11.75-5.05t4-14.82Q685.3,684,670.12,684Z"/><path class="cls-1" d="M701.12,725.93l1.79-6.36c1.15,1,2.09,1.75,2.83,2.27a18.26,18.26,0,0,0,2.54,1.46,16.63,16.63,0,0,0,7.16,1.69,9.91,9.91,0,0,0,6.7-2.25,7.13,7.13,0,0,0,2.61-5.66,6.65,6.65,0,0,0-1.29-4.29,8.43,8.43,0,0,0-2.79-2.41c-1.24-.72-3.56-1.81-6.94-3.29a69.92,69.92,0,0,1-6.31-3.28q-5.86-3.82-5.87-10.39a12,12,0,0,1,4.8-9.92q4.8-3.75,12.67-3.75a32.66,32.66,0,0,1,3.62.2,30.12,30.12,0,0,1,3.69.67,15.45,15.45,0,0,1,2.86.8l2.22.94L729.77,688l-2.44-1.47a21.54,21.54,0,0,0-4.4-1.81,15.75,15.75,0,0,0-4.26-.67,8.52,8.52,0,0,0-5.73,2,6.48,6.48,0,0,0-1.33,8.34,9.22,9.22,0,0,0,2.87,2.51,57.25,57.25,0,0,0,6.76,3.15,51.63,51.63,0,0,1,6.38,3.22,12.54,12.54,0,0,1,4.72,4.76,13.24,13.24,0,0,1,1.65,6.57,13.5,13.5,0,0,1-5,10.92q-5,4.15-13,4.16a28.35,28.35,0,0,1-4.37-.34,37.84,37.84,0,0,1-4.55-1A35.63,35.63,0,0,1,701.12,725.93Z"/><path class="cls-1" d="M744.16,728.8a4.09,4.09,0,0,0,.43-2.07v-44a6.28,6.28,0,0,0-.29-2.07l17.76-.07q7.46,0,11.85,3.65a12.13,12.13,0,0,1,4.41,9.87,12.52,12.52,0,0,1-5.12,10.64q-5.12,3.81-14.48,3.82h-4.61v18.2a6.24,6.24,0,0,0,.29,2.07Zm10-44.23v19.87h3.6a20,20,0,0,0,3.42-.26,11.84,11.84,0,0,0,2.48-.67q4.89-2.68,4.9-9.37,0-9.57-10.58-9.57Z"/><path class="cls-1" d="M786.55,680.62H797a5.4,5.4,0,0,0-.36,2.07v44a4.81,4.81,0,0,0,.36,2.07H786.69a5.27,5.27,0,0,0,.29-2.07v-44A4.33,4.33,0,0,0,786.55,680.62Z"/><path class="cls-1" d="M848.49,682v7l-2.15-1.61a17.78,17.78,0,0,0-10.45-3.15,14.29,14.29,0,0,0-11.78,5.4q-4.33,5.4-4.33,14.85t4.47,15a14.58,14.58,0,0,0,12,5.6,17.47,17.47,0,0,0,7.66-1.83,14.15,14.15,0,0,0,2.22-1.29,26,26,0,0,0,2.43-2.1v6.87L846,727.79a33.73,33.73,0,0,1-11.39,1.82q-12.24,0-18.76-6.64t-6.52-19q0-11.46,7.06-17.79t19.8-6.33a31,31,0,0,1,12.31,2.2Z"/><path class="cls-1" d="M860.16,728.8a4.3,4.3,0,0,0,.43-2.07V681.42a2.91,2.91,0,0,0-.43-.8l27.57-.07v4.35a13.21,13.21,0,0,1-1.43-.21,8.28,8.28,0,0,0-1.5-.12H870.33v17.8h14.54a14.61,14.61,0,0,0,2.86-.27v4.29a12.24,12.24,0,0,0-2-.21h-15.4v18.34h14.4a12.7,12.7,0,0,0,3-.33v4.61Z"/><path class="cls-1" d="M695.21,600.77v7.68l-2.37-1.77a19.71,19.71,0,0,0-11.54-3.47q-8.22,0-13,5.95t-4.79,16.4q0,10.35,4.94,16.53a16.1,16.1,0,0,0,13.25,6.18,19.23,19.23,0,0,0,8.45-2,15,15,0,0,0,2.45-1.42,29,29,0,0,0,2.69-2.32v7.59l-2.84,1.19a37.16,37.16,0,0,1-12.57,2q-13.51,0-20.71-7.33T652,625q0-12.65,7.79-19.64t21.86-7a34.62,34.62,0,0,1,13.59,2.44Z"/><path class="cls-1" d="M431.68,652.41a4.9,4.9,0,0,0,.47-2.29V601.51a7.36,7.36,0,0,0-.32-2.29l18.74-.08q13.68,0,21.19,7.1t7.5,20q0,11.67-7.43,18.91t-19.28,7.24ZM442.9,604v43.37h6.56a18.2,18.2,0,0,0,8.46-1.63,16.84,16.84,0,0,0,7.27-7.57A26.69,26.69,0,0,0,467.8,626q0-7.76-2.45-12.56A16.42,16.42,0,0,0,457.6,606a20.56,20.56,0,0,0-9.16-2Z"/><path class="cls-1" d="M431.68,728.8a4.9,4.9,0,0,0,.47-2.29V677.9a7.4,7.4,0,0,0-.32-2.29l18.74-.07q13.68,0,21.19,7.09t7.5,20q0,11.67-7.43,18.91t-19.28,7.24Zm11.22-48.39v43.37h6.56a18.34,18.34,0,0,0,8.46-1.62,16.86,16.86,0,0,0,7.27-7.58,26.67,26.67,0,0,0,2.61-12.22q0-7.77-2.45-12.56a16.44,16.44,0,0,0-7.75-7.39,20.69,20.69,0,0,0-9.16-2Z"/><path class="cls-1" d="M587.78,675.61h11.54a6.1,6.1,0,0,0-.39,2.29v21.21h23.63V677.9a7,7,0,0,0-.32-2.29h11.39a4.51,4.51,0,0,0-.55,2.29v48.61a5.33,5.33,0,0,0,.47,2.29H622.09a5.17,5.17,0,0,0,.47-2.29V703.39H598.93v23.12a6,6,0,0,0,.39,2.29H587.78a4.28,4.28,0,0,0,.47-2.29V677.9A4.33,4.33,0,0,0,587.78,675.61Z"/><polygon class="cls-1" points="660.4 866.14 680.34 866.14 670.26 837.18 660.4 866.14"/><path class="cls-1" d="M287.39,843.92q0-13.26-13.45-13.27h-3.39v26.62l2.38.19q7.05,0,10.76-3.5T287.39,843.92Z"/><path class="cls-1" d="M878.78,843.92q0-13.26-13.45-13.27h-3.39v26.62l2.38.19q7,0,10.75-3.5T878.78,843.92Z"/><path class="cls-1" d="M0,794.75v126.4H1000V794.75Zm143.14,31.56a9.61,9.61,0,0,0-.55,1.73L127.12,889.5l-.28,2v.84H115.31v-.84l-.27-2.06-12.74-48.9-13,48.91-.28,2v.84H77.87l.1-.56-.37-2.33L62.31,828c-.18-.87-.3-1.42-.36-1.64a8,8,0,0,0-.64-1.26H74.76l-.09.84L75,828,86.57,876.7,99.77,828l.44-2.34-.13-.57h11.3l-.19.93a5.65,5.65,0,0,0,.37,2l13,48.52L136.73,828l.33-2-.07-.86,6.88,0A5.26,5.26,0,0,0,143.14,826.31Zm61.69,66.08H191.56a7.06,7.06,0,0,0,.55-2.89V860.26H164.74V889.5a8.08,8.08,0,0,0,.46,2.89H151.83a5.84,5.84,0,0,0,.55-2.89V828a5.88,5.88,0,0,0-.55-2.9H165.2a8.13,8.13,0,0,0-.46,2.9v26.8h27.37V828a9.7,9.7,0,0,0-.37-2.9h13.18a6.12,6.12,0,0,0-.64,2.9V889.5A7.3,7.3,0,0,0,204.83,892.39Zm45.22-61.27c-.67-.08-1.28-.17-1.83-.29a9.12,9.12,0,0,0-1.93-.18H227.81V855.5h18.58a17.33,17.33,0,0,0,3.66-.38v6a14.71,14.71,0,0,0-2.57-.28H227.81v25.59H246.2a14.89,14.89,0,0,0,3.85-.46v6.44H214.81a6.67,6.67,0,0,0,.55-2.89V826.26a5,5,0,0,0-.55-1.12l35.24-.09Zm40.51,61.27a7.72,7.72,0,0,0-1.47-2.89l-18.54-28v28a7.2,7.2,0,0,0,.46,2.89H257.83a6.29,6.29,0,0,0,.55-2.89V828a6.33,6.33,0,0,0-.55-2.9l21.6-.09q9.24,0,15,5.09a17,17,0,0,1,5.73,13.31q0,14.38-16.85,17.46l20.32,28.59c.67.93,1.15,1.55,1.42,1.86s.6.66,1,1Zm54.86-61.27c-.67-.08-1.28-.17-1.83-.29a9.08,9.08,0,0,0-1.92-.18H323.18V855.5h18.58a17.33,17.33,0,0,0,3.66-.38v6a14.61,14.61,0,0,0-2.56-.28H323.18v25.59h18.4a14.86,14.86,0,0,0,3.84-.46v6.44H310.18a6.53,6.53,0,0,0,.55-2.89V826.26a4.55,4.55,0,0,0-.55-1.12l35.24-.09Zm73.5,61.27h-34.6a6.16,6.16,0,0,0,.55-2.89V828a6.58,6.58,0,0,0-.55-2.9l.55-.09h12.82a8.13,8.13,0,0,0-.46,2.9v58.46h20.41l1.28-.37Zm20.69,0H426.43a8,8,0,0,0,.37-2.89V828a6.72,6.72,0,0,0-.55-2.9h13.36a8.13,8.13,0,0,0-.46,2.9V889.5A7.2,7.2,0,0,0,439.61,892.39Zm48.7-61.27c-1.1-.25-1.76-.39-2-.42s-.81-.05-1.79-.05H466.61v24.94h15a18.3,18.3,0,0,0,3.85-.37v6a19.21,19.21,0,0,0-3.66-.38h-15.2V889.5a7.2,7.2,0,0,0,.46,2.89H453.71a6.68,6.68,0,0,0,.54-2.89V828a6.73,6.73,0,0,0-.54-2.9l34.6-.09Zm42.92,0c-.67-.08-1.28-.17-1.83-.29a9.08,9.08,0,0,0-1.92-.18H509V855.5h18.58a17.33,17.33,0,0,0,3.66-.38v6a14.71,14.71,0,0,0-2.56-.28H509v25.59h18.4a14.86,14.86,0,0,0,3.84-.46v6.44H496a6.53,6.53,0,0,0,.55-2.89V826.26a4.55,4.55,0,0,0-.55-1.12l35.24-.09ZM628,892.39a3.71,3.71,0,0,0,.18-1.3l-.09-1.59-6.39-48-16.06,48a6.65,6.65,0,0,0-.61,2.41v.46H594.76V892a6.52,6.52,0,0,0-.56-2.53l-15.85-47-6.87,47-.16,1.59.28,1.31h-6.87a5.59,5.59,0,0,0,.73-1.45,7.21,7.21,0,0,0,.28-1.44L575.08,828l.09-1.69-.21-1.21h11.1l-.09.56a9,9,0,0,0,.55,2.34l16.84,50.34L620.29,828a7.7,7.7,0,0,0,.46-2.34v-.56h11.17l-.19,1.22.19,1.68,8.6,61.46a7.55,7.55,0,0,0,.92,2.89Zm61,0a9.58,9.58,0,0,0-.55-2.91l-6.12-17.64H658.43l-6.14,17.68a8.22,8.22,0,0,0-.6,2.41v.46h-6.87a7.84,7.84,0,0,0,.87-1.31,9,9,0,0,0,.69-1.58L667.71,828a9.39,9.39,0,0,0,.55-2.34v-.56h10.8a7,7,0,0,0,0,.84,13.65,13.65,0,0,0,.69,2.06l22,61.46a8.22,8.22,0,0,0,1.46,2.89Zm56.57-60.52a18.24,18.24,0,0,0-3.84-.38H727.39v58a6.6,6.6,0,0,0,.45,2.89H714.57a8.08,8.08,0,0,0,.46-2.89v-58H701l-4.12.38v-6.82h48.6Zm51.35,0a18.24,18.24,0,0,0-3.84-.38H778.74v58a6.6,6.6,0,0,0,.45,2.89H765.92a8.08,8.08,0,0,0,.46-2.89v-58h-14l-4.12.38v-6.82h48.6Zm40.46-.75c-.68-.08-1.29-.17-1.83-.29a9.12,9.12,0,0,0-1.93-.18H815.07V855.5h18.59a17.33,17.33,0,0,0,3.66-.38v6a14.81,14.81,0,0,0-2.57-.28H815.07v25.59h18.4a14.89,14.89,0,0,0,3.85-.46v6.44H802.08a6.67,6.67,0,0,0,.55-2.89V826.26a5.44,5.44,0,0,0-.55-1.12l35.24-.09Zm44.62,61.27a7.52,7.52,0,0,0-1.46-2.89l-18.54-28v28a7.2,7.2,0,0,0,.46,2.89H849.22a6.3,6.3,0,0,0,.54-2.89V828a6.35,6.35,0,0,0-.54-2.9l21.6-.09q9.24,0,15,5.09a16.94,16.94,0,0,1,5.72,13.31q0,14.38-16.84,17.46L895,889.5c.67.93,1.15,1.55,1.42,1.86s.6.66,1,1Zm52-4.68q-6.4,5.81-16.65,5.8a34.54,34.54,0,0,1-5.59-.46,49,49,0,0,1-5.81-1.36,43.49,43.49,0,0,1-7.55-3.31l2.29-8.88a47.2,47.2,0,0,0,3.61,3.17,21.5,21.5,0,0,0,3.25,2,19.74,19.74,0,0,0,9.15,2.37,12,12,0,0,0,8.56-3.14,10.34,10.34,0,0,0,3.34-7.9,10,10,0,0,0-1.64-6,11.39,11.39,0,0,0-3.57-3.36q-2.39-1.5-8.88-4.59a89.34,89.34,0,0,1-8.06-4.58,16.87,16.87,0,0,1-7.5-14.5,17.29,17.29,0,0,1,6.13-13.84q6.13-5.24,16.2-5.24a36.52,36.52,0,0,1,4.62.28,37.37,37.37,0,0,1,4.72.93,18.5,18.5,0,0,1,3.66,1.12c.12.07,1.07.5,2.84,1.31L935,835.42l-3.11-2.06a26.11,26.11,0,0,0-5.63-2.52,18.38,18.38,0,0,0-5.45-.93,10.34,10.34,0,0,0-7.32,2.71,9.63,9.63,0,0,0-1.69,11.65,12.21,12.21,0,0,0,3.66,3.5,70.9,70.9,0,0,0,8.65,4.4,62.55,62.55,0,0,1,8.15,4.49,17,17,0,0,1,6,6.64,19.87,19.87,0,0,1,2.1,9.17Q940.38,881.92,934,887.71Z"/></svg>