<?xml version="1.0" encoding="UTF-8" standalone="no"?>
<svg
   width="500"
   zoomAndPan="magnify"
   viewBox="0 0 375 374.999991"
   height="500"
   preserveAspectRatio="xMidYMid meet"
   version="1.0"
   id="svg41"
   sodipodi:docname="nurse.svg"
   inkscape:version="1.2.2 (b0a8486541, 2022-12-01)"
   xmlns:inkscape="http://www.inkscape.org/namespaces/inkscape"
   xmlns:sodipodi="http://sodipodi.sourceforge.net/DTD/sodipodi-0.dtd"
   xmlns="http://www.w3.org/2000/svg"
   xmlns:svg="http://www.w3.org/2000/svg">
  <sodipodi:namedview
     id="namedview43"
     pagecolor="#ffffff"
     bordercolor="#000000"
     borderopacity="0.25"
     inkscape:showpageshadow="2"
     inkscape:pageopacity="0.0"
     inkscape:pagecheckerboard="0"
     inkscape:deskcolor="#d1d1d1"
     showgrid="false"
     inkscape:zoom="1.712"
     inkscape:cx="158.29439"
     inkscape:cy="250"
     inkscape:window-width="1920"
     inkscape:window-height="1002"
     inkscape:window-x="1920"
     inkscape:window-y="0"
     inkscape:window-maximized="1"
     inkscape:current-layer="svg41" />
  <defs
     id="defs17">
    <clipPath
       id="02a0be8b54">
      <path
         d="M 45 0 L 330 0 C 354.851562 0 375 20.148438 375 45 L 375 330 C 375 354.851562 354.851562 375 330 375 L 45 375 C 20.148438 375 0 354.851562 0 330 L 0 45 C 0 20.148438 20.148438 0 45 0 Z M 45 0 "
         clip-rule="nonzero"
         id="path2" />
    </clipPath>
    <clipPath
       id="a1895d230b">
      <path
         d="M 0 0 L 375 0 L 375 375 L 0 375 Z M 0 0 "
         clip-rule="nonzero"
         id="path5" />
    </clipPath>
    <clipPath
       id="d1a45b7d62">
      <path
         d="M 45 0 L 330 0 C 354.851562 0 375 20.148438 375 45 L 375 330 C 375 354.851562 354.851562 375 330 375 L 45 375 C 20.148438 375 0 354.851562 0 330 L 0 45 C 0 20.148438 20.148438 0 45 0 Z M 45 0 "
         clip-rule="nonzero"
         id="path8" />
    </clipPath>
    <clipPath
       id="986d0e2dfd">
      <rect
         x="0"
         width="375"
         y="0"
         height="375"
         id="rect11" />
    </clipPath>
    <clipPath
       id="b8b12b96ad">
      <path
         d="M 96.574219 124.875 L 278.074219 124.875 L 278.074219 250.125 L 96.574219 250.125 Z M 96.574219 124.875 "
         clip-rule="nonzero"
         id="path14" />
    </clipPath>
  </defs>
  <g
     clip-path="url(#02a0be8b54)"
     id="g33">
    <g
       transform="matrix(1, 0, 0, 1, 0, 0)"
       id="g31">
      <g
         clip-path="url(#986d0e2dfd)"
         id="g29">
        <g
           clip-path="url(#a1895d230b)"
           id="g27">
          <g
             clip-path="url(#d1a45b7d62)"
             id="g25">
            <rect
               x="-82.5"
               width="540"
               fill="#417dbc"
               height="539.999987"
               y="-82.499998"
               fill-opacity="1"
               id="rect23" />
          </g>
        </g>
      </g>
    </g>
  </g>
  <g
     clip-path="url(#b8b12b96ad)"
     id="g37">
    <path
       fill="#fedc07"
       d="M 96.617188 173.90625 C 96.691406 172.082031 97.550781 171.042969 99.074219 170.546875 C 108.136719 167.578125 117.179688 164.546875 126.28125 161.683594 C 130.597656 160.328125 130.625 160.488281 129.636719 156.0625 C 128.546875 151.164062 127.488281 146.257812 126.414062 141.351562 C 125.835938 138.726562 126.414062 137.503906 128.882812 136.5625 C 139.792969 132.414062 150.992188 129.289062 162.472656 127.179688 C 173.222656 125.1875 184.042969 124.390625 194.976562 125.167969 C 212.40625 126.34375 229.242188 130.15625 245.476562 136.601562 C 247.910156 137.570312 248.464844 138.894531 247.800781 141.640625 C 246.507812 147 245.207031 152.359375 243.910156 157.71875 C 243.34375 160.042969 243.363281 160.070312 245.613281 160.652344 C 255.789062 163.214844 265.753906 166.425781 275.511719 170.285156 C 278.171875 171.359375 278.816406 172.527344 278.148438 175.269531 C 272.390625 199.125 266.628906 222.976562 260.871094 246.828125 C 260.085938 250.0625 258.75 250.746094 255.554688 249.613281 C 240.835938 244.375 225.972656 239.597656 210.757812 235.992188 C 201.789062 233.863281 192.75 231.820312 183.417969 232.523438 C 175.289062 233.183594 167.3125 234.675781 159.496094 237 C 145.617188 241.019531 131.824219 245.347656 118.015625 249.621094 C 114.644531 250.664062 113.34375 250.027344 112.574219 246.5625 C 107.367188 222.828125 102.144531 199.089844 96.902344 175.351562 C 96.785156 174.8125 96.6875 174.269531 96.617188 173.90625 Z M 271.570312 176.894531 C 271.753906 175.234375 270.574219 175.210938 269.773438 174.902344 C 248.28125 166.90625 226.117188 161.894531 203.28125 159.867188 C 186.617188 158.382812 170.054688 159.121094 153.59375 162.085938 C 137.257812 165.011719 121.285156 169.277344 105.664062 174.882812 C 103.167969 175.773438 103.179688 175.75 103.761719 178.378906 C 108.355469 199.15625 112.953125 219.929688 117.546875 240.707031 C 118.015625 242.816406 118.058594 242.847656 120.207031 242.121094 C 135.464844 236.929688 150.875 232.273438 166.601562 228.683594 C 179.394531 225.761719 192.09375 225.242188 205.007812 228.097656 C 221.421875 231.726562 237.449219 236.585938 253.324219 242.027344 C 255.695312 242.84375 255.679688 242.84375 256.257812 240.441406 C 260.625 222.332031 264.996094 204.21875 269.367188 186.105469 Z M 186.597656 131.460938 C 184.554688 131.460938 182.511719 131.460938 180.464844 131.460938 C 179.863281 131.460938 179.253906 131.527344 178.648438 131.574219 C 163.394531 132.75 148.71875 136.394531 134.316406 141.359375 C 133.160156 141.753906 132.746094 142.25 133.046875 143.527344 C 134.125 148.085938 135.148438 152.660156 136.0625 157.25 C 136.34375 158.640625 136.902344 158.890625 138.203125 158.65625 C 147.214844 157.039062 156.207031 155.296875 165.261719 153.964844 C 176.789062 152.265625 188.402344 152.339844 200 153.140625 C 212.03125 153.964844 223.933594 155.691406 235.703125 158.328125 C 237.007812 158.617188 237.585938 158.328125 237.886719 156.972656 C 238.863281 152.613281 239.882812 148.261719 241.039062 143.953125 C 241.492188 142.292969 241.039062 141.628906 239.460938 141.0625 C 222.347656 135.050781 204.785156 131.519531 186.597656 131.460938 Z M 186.597656 131.460938 "
       fill-opacity="1"
       fill-rule="nonzero"
       id="path35" />
  </g>
  <path
     fill="#fedc07"
     d="M 163.03125 192.855469 C 163.03125 190.371094 163.011719 187.871094 163.03125 185.398438 C 163.050781 183.316406 163.863281 182.523438 165.964844 182.511719 C 169.335938 182.511719 172.710938 182.460938 176.082031 182.53125 C 177.410156 182.558594 177.835938 182.046875 177.820312 180.789062 C 177.777344 177.132812 177.796875 173.5 177.820312 169.859375 C 177.820312 167.5 178.550781 166.761719 180.882812 166.75 C 185.3125 166.730469 189.734375 166.730469 194.148438 166.75 C 196.527344 166.75 197.230469 167.476562 197.242188 169.816406 C 197.257812 173.292969 197.242188 176.773438 197.242188 180.25 C 197.242188 182.460938 197.292969 182.507812 199.4375 182.507812 C 202.699219 182.507812 205.960938 182.507812 209.21875 182.507812 C 211.195312 182.507812 212.03125 183.347656 212.042969 185.34375 C 212.0625 190.367188 212.0625 195.394531 212.042969 200.417969 C 212.042969 202.375 211.152344 203.25 209.195312 203.269531 C 206.097656 203.300781 203.003906 203.269531 199.90625 203.269531 C 197.25 203.269531 197.25 203.269531 197.25 206.019531 C 197.25 209.34375 197.25 212.648438 197.25 215.960938 C 197.25 218.226562 196.535156 218.953125 194.289062 218.953125 C 189.757812 218.96875 185.222656 218.96875 180.6875 218.953125 C 178.644531 218.953125 177.863281 218.207031 177.839844 216.171875 C 177.800781 212.46875 177.789062 208.773438 177.839844 205.070312 C 177.863281 203.742188 177.464844 203.203125 176.050781 203.242188 C 172.957031 203.335938 169.859375 203.273438 166.765625 203.269531 C 163.671875 203.265625 163.042969 202.660156 163.039062 199.636719 Z M 182.273438 178.859375 C 182.273438 180.625 182.273438 182.394531 182.273438 184.15625 C 182.253906 186.59375 181.574219 187.292969 179.09375 187.316406 C 175.773438 187.347656 172.449219 187.351562 169.128906 187.316406 C 168.011719 187.300781 167.523438 187.648438 167.550781 188.832031 C 167.605469 191.53125 167.605469 194.234375 167.550781 196.945312 C 167.523438 198.121094 168 198.480469 169.125 198.464844 C 172.496094 198.417969 175.867188 198.441406 179.238281 198.464844 C 181.476562 198.464844 182.230469 199.207031 182.253906 201.414062 C 182.277344 205.109375 182.285156 208.8125 182.253906 212.507812 C 182.253906 213.695312 182.640625 214.210938 183.890625 214.171875 C 186.265625 214.105469 188.644531 214.085938 191.019531 214.171875 C 192.441406 214.222656 192.835938 213.636719 192.816406 212.316406 C 192.761719 208.730469 192.789062 205.144531 192.816406 201.554688 C 192.816406 199.128906 193.535156 198.457031 196.011719 198.449219 C 199.332031 198.449219 202.65625 198.417969 205.957031 198.449219 C 207.109375 198.46875 207.542969 198.0625 207.519531 196.914062 C 207.46875 194.257812 207.441406 191.597656 207.519531 188.964844 C 207.5625 187.597656 206.972656 187.28125 205.742188 187.304688 C 202.484375 187.355469 199.21875 187.335938 195.957031 187.304688 C 193.519531 187.285156 192.8125 186.574219 192.800781 184.128906 C 192.785156 180.476562 192.773438 176.84375 192.800781 173.199219 C 192.800781 172.039062 192.4375 171.484375 191.171875 171.539062 C 188.738281 171.613281 186.304688 171.609375 183.863281 171.539062 C 182.59375 171.503906 182.199219 172.0625 182.234375 173.222656 C 182.308594 175.105469 182.277344 176.980469 182.273438 178.859375 Z M 182.273438 178.859375 "
     fill-opacity="1"
     fill-rule="nonzero"
     id="path39" />
</svg>
