<?xml version="1.0" encoding="UTF-8" standalone="no"?>
<svg
   width="500"
   zoomAndPan="magnify"
   viewBox="0 0 375 374.999991"
   height="500"
   preserveAspectRatio="xMidYMid meet"
   version="1.0"
   id="svg39"
   sodipodi:docname="pound.svg"
   inkscape:version="1.2.2 (b0a8486541, 2022-12-01)"
   xmlns:inkscape="http://www.inkscape.org/namespaces/inkscape"
   xmlns:sodipodi="http://sodipodi.sourceforge.net/DTD/sodipodi-0.dtd"
   xmlns="http://www.w3.org/2000/svg"
   xmlns:svg="http://www.w3.org/2000/svg">
  <sodipodi:namedview
     id="namedview41"
     pagecolor="#ffffff"
     bordercolor="#000000"
     borderopacity="0.25"
     inkscape:showpageshadow="2"
     inkscape:pageopacity="0.0"
     inkscape:pagecheckerboard="0"
     inkscape:deskcolor="#d1d1d1"
     showgrid="false"
     inkscape:zoom="1.712"
     inkscape:cx="158.29439"
     inkscape:cy="250"
     inkscape:window-width="1920"
     inkscape:window-height="1002"
     inkscape:window-x="1920"
     inkscape:window-y="0"
     inkscape:window-maximized="1"
     inkscape:current-layer="svg39" />
  <defs
     id="defs17">
    <clipPath
       id="7a0071d322">
      <path
         d="M 45 0 L 330 0 C 354.851562 0 375 20.148438 375 45 L 375 330 C 375 354.851562 354.851562 375 330 375 L 45 375 C 20.148438 375 0 354.851562 0 330 L 0 45 C 0 20.148438 20.148438 0 45 0 Z M 45 0 "
         clip-rule="nonzero"
         id="path2" />
    </clipPath>
    <clipPath
       id="43cf33f4b1">
      <path
         d="M 0 0 L 375 0 L 375 375 L 0 375 Z M 0 0 "
         clip-rule="nonzero"
         id="path5" />
    </clipPath>
    <clipPath
       id="44a2b3926a">
      <path
         d="M 45 0 L 330 0 C 354.851562 0 375 20.148438 375 45 L 375 330 C 375 354.851562 354.851562 375 330 375 L 45 375 C 20.148438 375 0 354.851562 0 330 L 0 45 C 0 20.148438 20.148438 0 45 0 Z M 45 0 "
         clip-rule="nonzero"
         id="path8" />
    </clipPath>
    <clipPath
       id="5841de090e">
      <rect
         x="0"
         width="375"
         y="0"
         height="375"
         id="rect11" />
    </clipPath>
    <clipPath
       id="5fe508f3f0">
      <path
         d="M 115.441406 86.1875 L 259.441406 86.1875 L 259.441406 288.6875 L 115.441406 288.6875 Z M 115.441406 86.1875 "
         clip-rule="nonzero"
         id="path14" />
    </clipPath>
  </defs>
  <g
     clip-path="url(#7a0071d322)"
     id="g33">
    <g
       transform="matrix(1, 0, 0, 1, 0, 0)"
       id="g31">
      <g
         clip-path="url(#5841de090e)"
         id="g29">
        <g
           clip-path="url(#43cf33f4b1)"
           id="g27">
          <g
             clip-path="url(#44a2b3926a)"
             id="g25">
            <rect
               x="-82.5"
               width="540"
               fill="#417dbc"
               height="539.999987"
               y="-82.499998"
               fill-opacity="1"
               id="rect23" />
          </g>
        </g>
      </g>
    </g>
  </g>
  <g
     clip-path="url(#5fe508f3f0)"
     id="g37">
    <path
       fill="#fedc07"
       d="M 201 280.019531 C 192.546875 277.425781 183.808594 274.75 176.484375 275.175781 C 160.875 276.085938 141.511719 281.042969 123.363281 288.785156 L 119.425781 279.554688 L 115.441406 270.347656 C 143.328125 258.273438 153.261719 237.050781 153.261719 221.210938 C 153.261719 214.71875 151.828125 208.238281 149.828125 201.246094 L 122.761719 201.246094 L 122.761719 181.179688 L 143.789062 181.179688 C 140.929688 170.972656 138.53125 159.625 138.53125 146.507812 C 138.53125 127.394531 144.382812 111.707031 155.457031 101.144531 C 165.996094 91.089844 180.554688 86.203125 197.53125 87.003906 C 227.933594 88.445312 243.859375 113.761719 248.621094 136.972656 L 228.964844 141.007812 C 227.390625 133.328125 220.394531 108.175781 196.582031 107.050781 C 185.210938 106.511719 175.78125 109.492188 169.304688 115.664062 C 162.300781 122.347656 158.597656 133.011719 158.597656 146.507812 C 158.597656 159.433594 161.480469 170.566406 164.691406 181.179688 L 211.464844 181.179688 L 211.464844 201.246094 L 170.605469 201.246094 C 172.222656 207.734375 173.328125 214.273438 173.328125 221.210938 C 173.328125 232.070312 170.183594 244.648438 162.675781 256.53125 C 167.046875 255.855469 171.289062 255.378906 175.320312 255.144531 C 186.242188 254.5 197.203125 257.867188 206.878906 260.832031 C 213.664062 262.914062 220.070312 264.878906 224.578125 264.878906 C 233.511719 264.878906 240.984375 261.570312 247.578125 258.652344 C 249.101562 257.980469 250.535156 257.34375 251.960938 256.761719 L 259.5625 275.332031 C 258.347656 275.828125 257.0625 276.398438 255.699219 277 C 248.125 280.351562 237.75 284.941406 224.578125 284.941406 C 217.0625 284.941406 209.257812 282.550781 201 280.019531 "
       fill-opacity="1"
       fill-rule="nonzero"
       id="path35" />
  </g>
</svg>
