<?xml version="1.0" encoding="UTF-8" standalone="no"?>
<svg
   width="500"
   zoomAndPan="magnify"
   viewBox="0 0 375 374.999991"
   height="500"
   preserveAspectRatio="xMidYMid meet"
   version="1.0"
   id="svg39"
   sodipodi:docname="tree.svg"
   inkscape:version="1.2.2 (b0a8486541, 2022-12-01)"
   xmlns:inkscape="http://www.inkscape.org/namespaces/inkscape"
   xmlns:sodipodi="http://sodipodi.sourceforge.net/DTD/sodipodi-0.dtd"
   xmlns="http://www.w3.org/2000/svg"
   xmlns:svg="http://www.w3.org/2000/svg">
  <sodipodi:namedview
     id="namedview41"
     pagecolor="#ffffff"
     bordercolor="#000000"
     borderopacity="0.25"
     inkscape:showpageshadow="2"
     inkscape:pageopacity="0.0"
     inkscape:pagecheckerboard="0"
     inkscape:deskcolor="#d1d1d1"
     showgrid="false"
     inkscape:zoom="1.712"
     inkscape:cx="158.29439"
     inkscape:cy="250"
     inkscape:window-width="1920"
     inkscape:window-height="1002"
     inkscape:window-x="1920"
     inkscape:window-y="0"
     inkscape:window-maximized="1"
     inkscape:current-layer="svg39" />
  <defs
     id="defs17">
    <clipPath
       id="1381efb541">
      <path
         d="M 45 0 L 330 0 C 354.851562 0 375 20.148438 375 45 L 375 330 C 375 354.851562 354.851562 375 330 375 L 45 375 C 20.148438 375 0 354.851562 0 330 L 0 45 C 0 20.148438 20.148438 0 45 0 Z M 45 0 "
         clip-rule="nonzero"
         id="path2" />
    </clipPath>
    <clipPath
       id="506cd3f246">
      <path
         d="M 0 0 L 375 0 L 375 375 L 0 375 Z M 0 0 "
         clip-rule="nonzero"
         id="path5" />
    </clipPath>
    <clipPath
       id="c945e9c3f7">
      <path
         d="M 45 0 L 330 0 C 354.851562 0 375 20.148438 375 45 L 375 330 C 375 354.851562 354.851562 375 330 375 L 45 375 C 20.148438 375 0 354.851562 0 330 L 0 45 C 0 20.148438 20.148438 0 45 0 Z M 45 0 "
         clip-rule="nonzero"
         id="path8" />
    </clipPath>
    <clipPath
       id="de1439c793">
      <rect
         x="0"
         width="375"
         y="0"
         height="375"
         id="rect11" />
    </clipPath>
    <clipPath
       id="58d1926d64">
      <path
         d="M 98.863281 90.496094 L 275.863281 90.496094 L 275.863281 284.746094 L 98.863281 284.746094 Z M 98.863281 90.496094 "
         clip-rule="nonzero"
         id="path14" />
    </clipPath>
  </defs>
  <g
     clip-path="url(#1381efb541)"
     id="g33">
    <g
       transform="matrix(1, 0, 0, 1, 0, 0)"
       id="g31">
      <g
         clip-path="url(#de1439c793)"
         id="g29">
        <g
           clip-path="url(#506cd3f246)"
           id="g27">
          <g
             clip-path="url(#c945e9c3f7)"
             id="g25">
            <rect
               x="-82.5"
               width="540"
               fill="#417dbc"
               height="539.999987"
               y="-82.499998"
               fill-opacity="1"
               id="rect23" />
          </g>
        </g>
      </g>
    </g>
  </g>
  <g
     clip-path="url(#58d1926d64)"
     id="g37">
    <path
       fill="#fedc07"
       d="M 252.71875 213.980469 L 250.164062 212.304688 C 250.046875 212.234375 249.910156 212.371094 249.992188 212.488281 C 250.589844 213.359375 251.5 213.859375 252.71875 213.980469 C 252.855469 214.496094 252.703125 214.84375 252.273438 214.996094 C 252.128906 215.050781 251.964844 215.023438 251.855469 214.925781 C 251.792969 214.878906 251.738281 214.796875 251.699219 214.6875 C 251.683594 214.625 251.601562 214.625 251.574219 214.679688 C 251.355469 215.144531 251.300781 215.570312 251.410156 215.953125 C 251.5 216.289062 251.308594 216.644531 250.972656 216.753906 L 249.9375 217.070312 C 249.527344 217.199219 249.101562 216.933594 249.019531 216.507812 L 248.765625 215.171875 C 248.726562 214.933594 248.574219 214.742188 248.355469 214.644531 C 247.4375 214.234375 246.699219 213.726562 246.128906 213.105469 C 246.007812 212.980469 245.800781 212.960938 245.671875 213.078125 L 242.042969 216.144531 C 241.964844 216.214844 241.863281 216.261719 241.753906 216.269531 C 241.082031 216.363281 240.871094 215.988281 241.125 215.152344 C 241.199219 214.925781 241.027344 214.6875 240.789062 214.6875 C 240.070312 214.679688 239.417969 214.371094 238.824219 213.78125 C 238.617188 213.570312 238.554688 213.242188 238.679688 212.96875 L 239.152344 211.96875 C 239.335938 211.578125 239.207031 211.117188 238.851562 210.871094 C 238.5 210.632812 238.027344 210.679688 237.726562 210.988281 C 235.953125 212.824219 233.269531 210.742188 232.441406 209.125 C 232.289062 208.824219 231.898438 208.75 231.632812 208.96875 L 230.324219 210.070312 C 229.925781 210.40625 229.316406 210.234375 229.140625 209.742188 C 228.953125 209.207031 228.613281 209.160156 228.132812 209.605469 C 227.898438 209.824219 227.558594 209.878906 227.269531 209.75 C 226.625 209.46875 226.050781 209.351562 225.53125 209.398438 C 225.367188 209.414062 225.339844 209.632812 225.488281 209.695312 C 225.949219 209.90625 226.542969 210.714844 227.25 212.125 C 227.660156 212.953125 227.269531 213.941406 226.414062 214.269531 C 225.421875 214.652344 224.597656 214.742188 223.949219 214.535156 C 223.304688 214.324219 222.785156 215.097656 223.222656 215.617188 C 223.886719 216.40625 224.585938 216.589844 225.339844 216.152344 C 225.433594 216.097656 225.53125 216.078125 225.640625 216.097656 L 228.234375 216.542969 C 228.871094 216.652344 229.234375 217.316406 228.980469 217.90625 C 228.015625 220.171875 226.085938 221.378906 223.1875 221.515625 C 223.03125 221.527344 222.886719 221.5 222.730469 221.445312 L 219.484375 220.269531 C 219.195312 220.164062 218.867188 220.171875 218.578125 220.289062 C 216.695312 221.070312 214.167969 221.472656 212.175781 220.0625 C 211.929688 219.890625 211.875 219.542969 212.046875 219.296875 C 212.402344 218.796875 212.695312 217.679688 212.921875 215.933594 C 212.949219 215.726562 212.722656 215.578125 212.546875 215.699219 C 211.25 216.515625 210.539062 217.050781 210.410156 217.308594 C 207.503906 222.980469 203.136719 228.972656 197.320312 235.285156 C 194.644531 238.175781 194.5625 241.964844 194.378906 246.867188 C 193.953125 259.078125 194.308594 270.644531 195.464844 281.554688 C 195.726562 284.082031 192.734375 285.773438 191.152344 282.917969 C 191.082031 282.800781 190.972656 282.71875 190.835938 282.691406 C 190.644531 282.664062 190.515625 282.710938 190.433594 282.828125 C 190.417969 282.855469 190.40625 282.882812 190.417969 282.910156 C 190.535156 283.273438 190.542969 283.621094 190.433594 283.9375 C 190.34375 284.21875 190.035156 284.363281 189.753906 284.246094 C 188.070312 283.539062 187.386719 282.511719 187.714844 281.164062 C 187.761719 280.984375 187.527344 280.863281 187.398438 281 C 187.027344 281.410156 186.960938 282.191406 187.207031 283.355469 C 187.261719 283.609375 187.027344 283.828125 186.78125 283.746094 C 185.824219 283.429688 184.886719 283.4375 183.96875 283.753906 C 183.734375 283.835938 183.488281 283.664062 183.488281 283.410156 C 183.507812 281.410156 183.671875 279.375 183.980469 277.300781 C 184.152344 276.117188 184.261719 274.097656 184.308594 271.246094 C 184.453125 260.871094 184.523438 251.949219 184.523438 244.492188 C 184.523438 242.011719 184.316406 240.039062 183.90625 238.574219 C 183.742188 238.011719 183.488281 237.476562 183.144531 236.992188 C 181.480469 234.691406 180.296875 232.917969 179.597656 231.683594 C 178.378906 229.507812 177.152344 227.910156 175.90625 226.890625 C 173.230469 224.707031 171.558594 223.5 170.878906 223.273438 C 168.777344 222.5625 166.367188 221.71875 163.667969 220.734375 C 161.8125 220.070312 160.820312 218.824219 160.703125 217.015625 C 160.675781 216.707031 160.394531 216.488281 160.085938 216.542969 L 158.449219 216.84375 C 158.148438 216.898438 157.855469 216.769531 157.691406 216.515625 C 157.074219 215.542969 155.675781 213.761719 154.429688 213.433594 C 154.128906 213.351562 153.855469 213.652344 153.964844 213.953125 C 154.285156 214.851562 154.4375 215.324219 154.429688 215.378906 C 154.402344 215.6875 154.027344 215.824219 153.800781 215.617188 C 153.300781 215.152344 153.011719 214.808594 152.929688 214.578125 C 152.457031 213.234375 150.628906 213.050781 150.21875 214.308594 C 149.546875 216.363281 148.875 218.917969 146.019531 217.90625 C 144.664062 217.433594 144.289062 216.671875 142.589844 216.597656 C 141.773438 216.5625 141.042969 215.835938 140.417969 214.425781 C 139.796875 213.050781 141.199219 212.644531 141.71875 211.515625 C 141.953125 211.007812 142.054688 210.453125 142.007812 209.90625 C 141.933594 209.085938 142.070312 208.140625 142.417969 207.078125 C 142.460938 206.921875 142.316406 206.777344 142.164062 206.824219 L 140.363281 207.378906 C 140.179688 207.433594 140.054688 207.597656 140.042969 207.777344 C 139.980469 208.714844 139.917969 209.269531 139.851562 209.441406 C 139.269531 211.152344 137.554688 212.105469 136.035156 211.570312 C 134.96875 211.195312 134.214844 210.296875 133.78125 208.878906 C 133.6875 208.605469 133.523438 208.371094 133.304688 208.1875 C 132.160156 207.25 131.207031 207.152344 130.441406 205.996094 C 130.214844 205.640625 129.585938 205.25 128.578125 204.824219 C 127.714844 204.449219 126.996094 205.160156 126.167969 205.269531 C 125.867188 205.3125 125.558594 205.203125 125.339844 204.988281 C 124.667969 204.3125 124.332031 203.53125 124.324219 202.632812 C 124.324219 202.40625 124.222656 202.195312 124.058594 202.039062 L 121.359375 199.558594 C 120.785156 199.03125 120.921875 198.085938 121.621094 197.75 C 121.632812 197.75 121.90625 197.832031 122.449219 197.996094 C 122.75 198.085938 123.070312 197.984375 123.257812 197.75 C 123.859375 196.996094 124.542969 196.429688 125.304688 196.039062 C 125.578125 195.902344 125.640625 195.546875 125.449219 195.320312 L 124.351562 194.011719 C 124.304688 193.964844 124.277344 193.902344 124.285156 193.839844 C 124.296875 193.558594 124.449219 193.429688 124.75 193.464844 C 125.050781 193.503906 125.214844 193.128906 124.976562 192.9375 C 124.1875 192.300781 123.640625 192.320312 123.332031 192.984375 C 123.25 193.15625 123.113281 193.285156 122.941406 193.347656 C 121.214844 194.03125 119.46875 195.101562 117.710938 196.585938 C 117.457031 196.804688 117.121094 196.914062 116.785156 196.894531 L 115.640625 196.820312 C 113.867188 196.703125 113.394531 194.3125 114.996094 193.53125 C 115.003906 193.519531 115.285156 193.503906 115.847656 193.464844 C 116.15625 193.449219 116.332031 193.101562 116.167969 192.839844 C 116.066406 192.667969 115.792969 192.492188 115.359375 192.320312 C 115.140625 192.230469 115.113281 191.929688 115.3125 191.800781 C 116.167969 191.246094 116.777344 191.085938 117.132812 191.3125 C 117.367188 191.457031 117.675781 191.328125 117.722656 191.058594 C 117.804688 190.59375 118.167969 190.328125 118.8125 190.285156 C 119.003906 190.265625 119.105469 190.039062 118.984375 189.882812 L 118.078125 188.757812 C 117.929688 188.566406 117.675781 188.503906 117.457031 188.582031 C 117.230469 188.675781 116.921875 188.984375 116.523438 189.503906 C 115.414062 190.949219 114.511719 192.355469 113.820312 193.730469 C 113.648438 194.066406 113.347656 194.320312 112.984375 194.441406 L 108.394531 195.847656 C 106.894531 196.3125 105.335938 195.265625 105.210938 193.695312 L 105.066406 191.929688 C 105.019531 191.339844 105.183594 190.757812 105.527344 190.285156 C 106.929688 188.347656 110.800781 185.347656 113.148438 185.019531 C 113.265625 185 113.347656 184.902344 113.332031 184.78125 L 113.332031 184.773438 C 113.320312 184.675781 113.238281 184.601562 113.140625 184.609375 C 109.039062 184.78125 105.382812 185.621094 102.171875 187.121094 C 101.335938 187.511719 100.347656 187.328125 99.699219 186.683594 L 99.144531 186.128906 C 98.65625 185.636719 98.78125 184.820312 99.402344 184.5 C 100.492188 183.945312 101.308594 183 101.847656 181.644531 C 101.875 181.589844 101.875 181.519531 101.855469 181.464844 C 101.792969 181.246094 101.664062 181.15625 101.472656 181.183594 C 101.375 181.199219 101.300781 181.300781 101.320312 181.402344 C 101.539062 182.390625 100.929688 182.910156 99.492188 182.9375 C 99.238281 182.945312 99.046875 182.699219 99.109375 182.445312 C 99.746094 180.007812 98.773438 176.34375 102.664062 176.179688 C 102.9375 176.171875 103.191406 176.027344 103.335938 175.800781 C 105 173.226562 108.15625 169.234375 111.53125 169.398438 C 112.59375 169.453125 114.539062 170.027344 117.386719 171.109375 C 117.695312 171.21875 118.023438 171.261719 118.347656 171.226562 C 120.632812 170.945312 122.757812 170.191406 124.75 168.972656 C 124.941406 168.863281 125.097656 168.699219 125.207031 168.507812 L 126.195312 166.789062 C 126.460938 166.335938 125.933594 165.835938 125.496094 166.125 C 125.242188 166.296875 124.976562 166.351562 124.695312 166.296875 C 124.488281 166.253906 124.332031 166.070312 124.324219 165.863281 L 124.296875 164.597656 C 124.285156 164.324219 124.125 164.078125 123.878906 163.96875 C 122.960938 163.570312 121.996094 162.769531 120.984375 161.570312 C 120.859375 161.425781 120.839844 161.214844 120.941406 161.042969 L 121.230469 160.535156 C 121.339844 160.351562 121.25 160.113281 121.050781 160.050781 C 119.523438 159.570312 117.648438 161.089844 116.585938 161.667969 C 116.15625 161.90625 115.640625 161.535156 115.730469 161.050781 C 115.847656 160.398438 116.25 159.914062 116.914062 159.605469 C 117.113281 159.515625 117.09375 159.222656 116.886719 159.152344 C 116.8125 159.125 116.429688 159.234375 115.75 159.480469 C 115.292969 159.632812 115.003906 159.605469 114.886719 159.398438 C 114.777344 159.195312 114.738281 158.804688 114.777344 158.234375 C 114.777344 158.179688 114.792969 158.132812 114.832031 158.097656 L 117.441406 155.488281 C 117.738281 155.1875 117.902344 154.785156 117.894531 154.359375 L 117.875 153.851562 C 117.867188 153.40625 118.03125 152.96875 118.339844 152.648438 C 119.769531 151.167969 121.59375 151.003906 123.8125 152.148438 C 124.078125 152.285156 124.394531 152.304688 124.679688 152.195312 C 125.558594 151.859375 126.476562 151.195312 127.433594 150.203125 C 129.40625 148.140625 131.644531 147.996094 134.132812 149.769531 C 134.398438 149.957031 134.707031 150.085938 135.023438 150.132812 C 136.652344 150.402344 137.84375 150.777344 138.589844 151.25 C 139.796875 152.011719 141.34375 151.023438 141.164062 149.59375 C 140.980469 148.183594 140.371094 146.957031 139.324219 145.894531 C 138.953125 145.519531 138.433594 145.332031 137.90625 145.386719 C 136.324219 145.539062 134.980469 145.066406 133.878906 143.976562 C 133.160156 143.265625 133.789062 141.910156 135.089844 141.347656 C 136.335938 140.8125 137.335938 140.257812 138.082031 139.703125 C 138.261719 139.566406 138.378906 139.429688 138.445312 139.292969 C 138.542969 139.066406 138.296875 138.847656 138.089844 138.976562 L 137.296875 139.429688 C 137.105469 139.539062 136.878906 139.558594 136.671875 139.484375 C 136.351562 139.367188 135.226562 139.03125 133.304688 138.492188 C 132.96875 138.402344 132.589844 138.484375 132.171875 138.738281 C 131.96875 138.855469 131.734375 138.894531 131.507812 138.839844 L 126.652344 137.609375 C 126.277344 137.519531 126.070312 137.128906 126.1875 136.765625 C 126.351562 136.285156 126.761719 135.9375 127.40625 135.738281 C 128.140625 135.511719 128.195312 134.484375 127.488281 134.128906 C 127.1875 133.984375 126.988281 133.792969 126.867188 133.566406 C 126.789062 133.390625 126.921875 133.144531 127.289062 132.820312 C 127.421875 132.691406 127.542969 132.546875 127.640625 132.390625 C 127.769531 132.183594 127.652344 131.910156 127.40625 131.863281 C 124.722656 131.363281 122.550781 131.574219 120.332031 129.398438 C 120.140625 129.210938 120.085938 128.925781 120.1875 128.683594 C 120.757812 127.300781 121.503906 126.5625 122.414062 126.464844 C 123.015625 126.398438 123.09375 125.5625 122.515625 125.390625 C 122.085938 125.273438 121.367188 125.234375 120.359375 125.300781 C 120.023438 125.316406 119.703125 125.164062 119.511719 124.890625 C 118.695312 123.734375 118.804688 122.480469 119.832031 121.136719 C 119.984375 120.925781 120.257812 120.816406 120.523438 120.863281 L 122.59375 121.21875 C 122.851562 121.261719 123.121094 121.207031 123.339844 121.054688 C 123.988281 120.617188 124.667969 120.453125 125.386719 120.5625 C 127.75 120.917969 129.761719 119.308594 130.859375 117.363281 C 131.078125 116.988281 131.425781 116.707031 131.84375 116.578125 L 134.769531 115.679688 C 134.988281 115.605469 135.226562 115.742188 135.269531 115.96875 C 135.335938 116.269531 135.371094 116.433594 135.371094 116.453125 C 135.378906 116.6875 135.507812 116.824219 135.734375 116.851562 C 136.160156 116.90625 136.617188 116.40625 137.242188 116.34375 C 141.453125 115.960938 145.101562 116.925781 148.191406 119.226562 C 149.4375 120.164062 150.5 120.335938 151.800781 119.734375 C 152.171875 119.5625 152.390625 119.152344 152.320312 118.742188 C 152.144531 117.714844 151.765625 116.898438 151.171875 116.289062 C 147.117188 112.105469 151.910156 110.550781 155.175781 110.878906 C 155.417969 110.90625 155.621094 110.707031 155.601562 110.460938 C 155.519531 109.425781 155.945312 108.40625 156.875 107.40625 C 157.09375 107.167969 157.421875 107.058594 157.746094 107.113281 L 160.148438 107.523438 C 160.464844 107.578125 160.628906 107.160156 160.355469 106.988281 C 158.65625 105.941406 157.339844 104.503906 156.402344 102.6875 C 155.800781 101.511719 156.800781 100.167969 158.09375 100.386719 L 160.4375 100.785156 C 160.757812 100.839844 161.074219 100.757812 161.328125 100.578125 C 162.410156 99.757812 162.964844 99.175781 164.003906 99.113281 C 165.523438 99.011719 166.703125 98.578125 167.539062 97.792969 C 167.886719 97.476562 168.386719 97.375 168.832031 97.550781 L 172.730469 99.105469 C 173.105469 99.25 173.449219 99.457031 173.742188 99.722656 C 175.167969 100.984375 175.652344 102.296875 178.085938 102.996094 C 178.34375 103.066406 178.597656 102.867188 178.578125 102.59375 C 178.460938 101.03125 178.980469 99.285156 180.125 97.347656 C 180.632812 96.496094 181.515625 96.285156 182.460938 96.285156 C 182.617188 96.285156 182.769531 96.25 182.90625 96.167969 L 186.625 94.019531 C 186.953125 93.832031 187.1875 93.511719 187.261719 93.140625 C 187.671875 91.273438 189.082031 90.429688 191.507812 90.613281 C 192.828125 90.710938 194.773438 90.765625 197.34375 90.785156 C 197.65625 90.792969 197.9375 90.957031 198.082031 91.21875 C 198.144531 91.339844 198.210938 91.558594 198.273438 91.855469 C 198.65625 93.59375 201.238281 93.75 202.410156 94.074219 C 202.726562 94.167969 203.011719 94.339844 203.238281 94.574219 C 203.820312 95.203125 204.230469 95.921875 204.464844 96.730469 C 204.566406 97.085938 204.429688 97.457031 204.128906 97.648438 C 204.121094 97.65625 204.101562 97.667969 204.066406 97.683594 C 203.757812 97.847656 203.71875 98.265625 203.992188 98.484375 L 205.246094 99.46875 C 205.511719 99.675781 205.902344 99.53125 205.957031 99.195312 C 206.164062 97.875 206.285156 97.148438 206.292969 97.011719 C 206.375 96.101562 206.964844 95.394531 207.710938 95.320312 C 208.136719 95.285156 208.53125 95.476562 208.875 95.902344 C 209.8125 97.066406 211.011719 97.640625 212.347656 98.660156 C 212.675781 98.902344 212.710938 99.375 212.421875 99.667969 L 210.773438 101.3125 C 210.484375 101.59375 210.566406 102.085938 210.929688 102.269531 C 211.347656 102.476562 211.820312 102.433594 212.359375 102.148438 C 213.875 101.324219 215.128906 101.53125 216.105469 102.757812 C 216.386719 103.113281 216.359375 103.613281 216.039062 103.933594 L 214.3125 105.660156 C 214.074219 105.894531 213.722656 105.960938 213.414062 105.832031 C 211.894531 105.175781 210.222656 105.277344 208.375 106.125 C 207.957031 106.3125 208.039062 106.933594 208.492188 107.015625 C 209.539062 107.1875 210.628906 107.085938 211.765625 106.714844 C 211.964844 106.652344 212.195312 106.722656 212.320312 106.894531 C 212.902344 107.667969 213.3125 107.933594 213.539062 107.667969 C 214.203125 106.933594 214.949219 106.3125 215.792969 105.8125 C 219.632812 103.539062 220.257812 108.386719 220.90625 111.035156 C 220.984375 111.351562 221.304688 111.5625 221.621094 111.496094 L 222.894531 111.261719 C 223.214844 111.207031 223.53125 111.316406 223.730469 111.5625 C 224.558594 112.535156 225.625 112.722656 226.941406 112.144531 C 228.6875 111.371094 227.769531 108.570312 231.460938 109.105469 C 231.542969 109.113281 231.617188 109.132812 231.679688 109.167969 L 236.652344 111.613281 C 236.925781 111.742188 237.214844 111.816406 237.515625 111.804688 L 244.21875 111.632812 C 245.71875 111.597656 246.5 113.40625 245.4375 114.46875 L 244.84375 115.050781 C 244.671875 115.226562 244.636719 115.488281 244.761719 115.707031 L 245.371094 116.761719 C 246.082031 117.988281 245.171875 119.507812 243.761719 119.472656 C 242.21875 119.425781 241.007812 119.136719 240.136719 118.597656 C 239.898438 118.460938 239.617188 118.417969 239.351562 118.480469 C 238.878906 118.597656 238.5625 119 238.40625 119.699219 C 238.34375 119.945312 238.5625 120.171875 238.816406 120.125 L 240.589844 119.796875 C 240.945312 119.734375 241.234375 120.0625 241.136719 120.40625 C 240.898438 121.261719 241.097656 122.015625 240.027344 122.542969 C 239.78125 122.664062 239.597656 122.789062 239.5 122.90625 C 239.324219 123.097656 239.363281 123.410156 239.570312 123.554688 C 243 125.980469 244.773438 127.21875 244.890625 127.273438 C 246.945312 128.21875 246.527344 130.046875 245.527344 131.609375 C 245.34375 131.890625 245.464844 132.265625 245.761719 132.402344 L 247.363281 133.15625 C 248.035156 133.472656 248.335938 134.253906 248.0625 134.945312 C 246.5625 138.703125 242.9375 137.292969 240.515625 135.390625 C 240.054688 135.027344 239.371094 135.328125 239.34375 135.917969 C 239.28125 137.121094 238.90625 138.292969 237.507812 138.449219 C 235.824219 138.636719 234.597656 138.675781 233.824219 138.574219 C 233.507812 138.527344 233.351562 138.949219 233.617188 139.121094 C 235.253906 140.191406 236.761719 140.757812 238.152344 140.820312 C 240.378906 140.921875 241.199219 142.320312 241.488281 144.039062 C 241.535156 144.3125 241.410156 144.59375 241.171875 144.738281 C 239.390625 145.839844 237.480469 145.902344 235.433594 144.949219 C 235.152344 144.8125 234.808594 144.792969 234.40625 144.886719 C 234.1875 144.941406 234.125 145.210938 234.296875 145.359375 L 235.5 146.332031 C 235.769531 146.550781 235.824219 146.941406 235.625 147.222656 C 234.90625 148.230469 234.542969 148.8125 234.523438 148.949219 C 234.351562 150.085938 235.460938 150.984375 236.542969 150.59375 C 238.808594 149.777344 241.800781 149.277344 241.773438 152.8125 C 241.761719 153.195312 242.109375 153.488281 242.492188 153.421875 L 248.265625 152.359375 C 248.492188 152.3125 248.601562 152.050781 248.472656 151.859375 C 248.136719 151.351562 247.863281 151.03125 247.65625 150.894531 C 247.074219 150.53125 247.273438 149.59375 248.007812 149.242188 C 249.410156 148.566406 250.238281 149.558594 251.671875 149.660156 C 253.835938 149.820312 256.683594 149.605469 257.867188 150.339844 C 259.285156 151.222656 259.921875 152.285156 259.785156 153.542969 C 259.746094 153.8125 260.03125 154.015625 260.285156 153.90625 C 263.058594 152.6875 267.511719 151.578125 267.449219 156.257812 C 267.441406 156.394531 267.402344 156.53125 267.339844 156.652344 L 266.230469 158.570312 C 266.078125 158.84375 265.785156 159.015625 265.476562 159.023438 L 262.785156 159.085938 C 262.621094 159.085938 262.519531 159.269531 262.601562 159.414062 L 263.503906 160.980469 C 263.667969 161.269531 263.53125 161.632812 263.210938 161.734375 L 260.785156 162.480469 C 260.574219 162.542969 260.566406 162.84375 260.777344 162.914062 C 262.914062 163.699219 264.367188 165.007812 265.140625 166.851562 C 265.550781 167.84375 264.820312 168.925781 263.75 168.917969 C 261.675781 168.898438 259.910156 169.214844 258.449219 169.863281 C 257.710938 170.191406 257.558594 171.152344 258.175781 171.582031 C 258.675781 171.925781 258.882812 172.300781 258.8125 172.707031 C 258.800781 172.761719 258.785156 172.808594 258.757812 172.855469 L 256.328125 177.054688 C 256.21875 177.234375 256.066406 177.390625 255.875 177.480469 C 254.121094 178.316406 252.703125 177.835938 251.621094 176.046875 C 251.191406 175.328125 250.15625 174.925781 248.507812 174.855469 C 248.265625 174.835938 248.117188 175.125 248.273438 175.316406 C 248.300781 175.363281 248.753906 175.554688 249.617188 175.890625 C 250.527344 176.246094 250.445312 177.5625 249.492188 177.789062 C 247.917969 178.164062 246.210938 177.953125 244.363281 177.164062 C 244.117188 177.054688 244.082031 176.707031 244.308594 176.5625 C 245.136719 176.019531 245.582031 174.980469 245.628906 173.464844 C 245.628906 173.355469 245.5 173.300781 245.417969 173.371094 L 241.753906 177.046875 C 241.542969 177.253906 241.246094 177.34375 240.953125 177.300781 L 239.542969 177.054688 C 239.289062 177.007812 239.097656 177.28125 239.226562 177.507812 L 239.980469 178.800781 C 240.136719 179.0625 240.507812 179.054688 240.652344 178.792969 C 240.863281 178.398438 241.035156 178.171875 241.152344 178.109375 C 241.417969 177.972656 241.636719 177.953125 241.828125 178.054688 C 242.253906 178.28125 242.5 178.601562 242.5625 178.992188 C 242.617188 179.328125 242.355469 179.617188 242.015625 179.589844 C 241.554688 179.546875 241.234375 179.589844 241.082031 179.71875 C 240.808594 179.945312 240.828125 180.363281 241.117188 180.5625 L 243.480469 182.199219 C 243.800781 182.417969 244.21875 182.429688 244.546875 182.226562 C 245.609375 181.589844 246.546875 181.574219 247.363281 182.183594 C 247.609375 182.363281 247.9375 182.382812 248.191406 182.210938 L 250.039062 180.964844 C 250.382812 180.726562 250.863281 180.820312 251.101562 181.171875 C 251.199219 181.320312 251.183594 181.808594 251.066406 182.65625 C 251.027344 182.9375 251.375 183.109375 251.574219 182.902344 C 252.5 181.929688 253.757812 181.472656 255.347656 181.554688 C 255.566406 181.5625 255.65625 181.835938 255.492188 181.972656 C 255.472656 181.992188 255.230469 182.089844 254.757812 182.273438 C 254.09375 182.527344 254.183594 183.5 254.882812 183.621094 L 261.195312 184.703125 C 261.484375 184.757812 261.730469 184.957031 261.839844 185.230469 L 261.984375 185.601562 C 262.332031 186.464844 263.511719 186.554688 263.976562 185.757812 L 264.949219 184.074219 C 265.476562 183.15625 266.757812 183.046875 267.449219 183.855469 L 269.511719 186.292969 C 269.777344 186.601562 269.832031 187.039062 269.660156 187.410156 L 268.730469 189.394531 C 268.558594 189.757812 268.867188 190.15625 269.257812 190.074219 C 271.332031 189.65625 272.460938 190.265625 272.640625 191.894531 C 272.675781 192.210938 272.859375 192.484375 273.132812 192.640625 L 274.269531 193.304688 C 274.695312 193.546875 274.625 194.195312 274.152344 194.339844 L 271.421875 195.183594 C 271.03125 195.3125 270.730469 195.628906 270.640625 196.039062 C 270.539062 196.511719 270.285156 196.941406 269.878906 197.332031 C 269.742188 197.457031 269.878906 197.675781 270.050781 197.621094 L 272.304688 196.929688 C 272.605469 196.839844 272.933594 196.847656 273.222656 196.957031 C 274.207031 197.332031 275.132812 198.332031 276.003906 199.96875 C 276.277344 200.476562 276.042969 201.105469 275.503906 201.3125 L 271.085938 203.058594 C 270.933594 203.121094 270.832031 203.277344 270.839844 203.441406 C 270.867188 203.90625 271.257812 204.242188 272.015625 204.441406 C 272.625 204.605469 272.824219 205.359375 272.386719 205.796875 L 271.113281 207.070312 C 270.558594 207.625 269.675781 207.667969 269.078125 207.179688 L 264.941406 203.824219 C 264.765625 203.675781 264.695312 203.449219 264.75 203.242188 L 265.023438 202.160156 C 265.085938 201.90625 264.792969 201.703125 264.574219 201.851562 C 264.304688 202.03125 264.195312 202.3125 264.257812 202.695312 C 264.304688 202.976562 264.09375 203.230469 263.8125 203.242188 L 263.492188 203.25 C 263.339844 203.257812 263.222656 203.386719 263.238281 203.542969 C 263.347656 204.515625 262.902344 205.332031 261.910156 205.976562 C 261.675781 206.132812 261.558594 206.433594 261.628906 206.714844 C 261.894531 207.777344 261.347656 208.398438 259.992188 208.585938 C 259.738281 208.625 259.59375 208.296875 259.792969 208.132812 L 261.519531 206.667969 C 261.710938 206.503906 261.804688 206.261719 261.757812 206.015625 L 261.601562 205.167969 C 261.59375 205.105469 261.511719 205.078125 261.464844 205.125 L 258.539062 208.050781 C 258.339844 208.25 258.019531 208.269531 257.792969 208.097656 C 257.566406 207.921875 257.503906 207.613281 257.648438 207.367188 L 258.320312 206.214844 C 258.394531 206.085938 258.273438 205.941406 258.128906 205.976562 C 257.375 206.195312 256.875 206.214844 256.609375 206.042969 C 256.367188 205.878906 256.027344 205.96875 255.902344 206.242188 C 255.675781 206.761719 255.339844 207.070312 254.902344 207.1875 C 254.664062 207.25 254.519531 207.476562 254.546875 207.714844 C 254.582031 207.949219 254.792969 208.125 255.039062 208.113281 C 255.765625 208.078125 256.183594 208.085938 256.292969 208.140625 C 256.628906 208.304688 256.621094 208.796875 256.273438 208.953125 L 255.773438 209.1875 C 255.492188 209.316406 255.59375 209.734375 255.902344 209.722656 C 256.71875 209.695312 257.273438 209.90625 257.566406 210.351562 C 257.8125 210.722656 257.757812 211.207031 257.4375 211.515625 C 257.15625 211.777344 256.921875 212.324219 256.738281 213.132812 C 256.621094 213.644531 256.292969 214.078125 255.828125 214.324219 C 254.417969 215.078125 253.382812 214.960938 252.71875 213.980469 Z M 216.722656 107.714844 C 216.675781 107.652344 216.605469 107.625 216.503906 107.625 C 216.421875 107.625 216.386719 107.722656 216.441406 107.777344 C 216.496094 107.839844 216.578125 107.851562 216.695312 107.804688 C 216.730469 107.789062 216.75 107.75 216.722656 107.714844 Z M 156.347656 114.617188 C 156.082031 114.953125 155.902344 115.308594 155.800781 115.679688 C 155.765625 115.824219 155.957031 115.914062 156.039062 115.796875 C 156.257812 115.488281 156.484375 115.1875 156.710938 114.90625 C 156.929688 114.625 157.175781 114.34375 157.429688 114.050781 C 157.519531 113.941406 157.394531 113.777344 157.265625 113.851562 C 156.921875 114.023438 156.609375 114.289062 156.347656 114.617188 Z M 235.070312 122.21875 C 235.0625 122.027344 235.050781 121.917969 235.035156 121.890625 C 234.996094 121.816406 234.90625 121.78125 234.824219 121.808594 C 234.742188 121.835938 234.6875 121.925781 234.707031 122.007812 C 234.714844 122.070312 234.789062 122.171875 234.925781 122.289062 C 234.980469 122.34375 235.070312 122.300781 235.070312 122.21875 Z M 236.433594 125.609375 C 236.40625 125.371094 236.105469 125.300781 235.980469 125.5 C 235.890625 125.644531 235.84375 125.71875 235.835938 125.726562 C 235.734375 125.980469 236.015625 126.207031 236.242188 126.054688 C 236.398438 125.953125 236.460938 125.800781 236.433594 125.609375 Z M 231.316406 127.355469 C 231.898438 127.144531 232.199219 127.027344 232.207031 126.992188 C 232.316406 126.753906 232.0625 126.5 231.824219 126.617188 C 231.378906 126.828125 231.132812 126.972656 231.078125 127.035156 C 230.953125 127.199219 231.117188 127.425781 231.316406 127.355469 Z M 241.042969 134.71875 L 240.171875 133.472656 C 239.980469 133.210938 239.582031 133.273438 239.488281 133.582031 C 239.316406 134.199219 238.664062 134.609375 237.542969 134.808594 C 237.425781 134.835938 237.34375 134.957031 237.378906 135.074219 L 237.472656 135.355469 C 237.527344 135.527344 237.714844 135.628906 237.890625 135.554688 C 238.398438 135.347656 238.789062 135.109375 239.070312 134.828125 C 239.296875 134.601562 239.625 134.5 239.945312 134.554688 L 241.027344 134.746094 C 241.042969 134.746094 241.054688 134.730469 241.042969 134.71875 Z M 138.714844 136.636719 C 138.460938 136.703125 138.289062 136.820312 138.207031 137.011719 C 138.152344 137.136719 138.261719 137.273438 138.398438 137.238281 C 138.5625 137.191406 138.714844 137.066406 138.863281 136.855469 C 138.933594 136.746094 138.84375 136.609375 138.714844 136.636719 Z M 231.914062 138.476562 C 231.707031 138.429688 231.496094 138.4375 231.296875 138.492188 C 231.171875 138.527344 231.160156 138.710938 231.289062 138.746094 C 231.515625 138.8125 231.714844 138.847656 231.878906 138.839844 C 231.96875 138.839844 232.050781 138.765625 232.0625 138.664062 C 232.070312 138.574219 232.007812 138.492188 231.914062 138.476562 Z M 234.34375 143.566406 C 234.371094 143.648438 234.433594 143.738281 234.535156 143.839844 C 234.597656 143.902344 234.699219 143.839844 234.671875 143.757812 C 234.625 143.59375 234.570312 143.484375 234.507812 143.4375 C 234.417969 143.367188 234.296875 143.464844 234.34375 143.566406 Z M 234.359375 147.816406 C 234.253906 147.558594 233.898438 147.449219 233.570312 147.585938 C 233.242188 147.722656 233.0625 148.039062 233.164062 148.300781 C 233.269531 148.558594 233.625 148.667969 233.949219 148.53125 C 234.28125 148.394531 234.460938 148.078125 234.359375 147.816406 Z M 131.351562 149.996094 C 131.351562 149.976562 131.195312 149.804688 130.898438 149.46875 C 130.777344 149.339844 130.5625 149.441406 130.589844 149.613281 C 130.597656 149.703125 130.679688 149.875 130.832031 150.132812 C 130.980469 150.375 131.34375 150.277344 131.351562 149.996094 Z M 133.78125 150.503906 C 133.699219 150.402344 133.550781 150.347656 133.34375 150.332031 C 133.097656 150.3125 132.925781 150.441406 132.84375 150.714844 C 132.777344 150.921875 132.953125 151.003906 133.359375 150.941406 C 133.679688 150.894531 133.914062 150.648438 133.78125 150.503906 Z M 129.753906 151.21875 C 129.640625 151.332031 129.6875 151.566406 129.863281 151.738281 C 130.042969 151.914062 130.269531 151.957031 130.386719 151.847656 C 130.496094 151.730469 130.453125 151.496094 130.273438 151.324219 C 130.097656 151.148438 129.871094 151.105469 129.753906 151.21875 Z M 120.539062 154.292969 C 120.429688 154.148438 120.066406 154.25 119.730469 154.507812 C 119.386719 154.769531 119.203125 155.085938 119.304688 155.226562 C 119.414062 155.367188 119.777344 155.269531 120.113281 155.011719 C 120.457031 154.75 120.640625 154.433594 120.539062 154.292969 Z M 263.738281 156.179688 C 263.046875 156.660156 262.703125 157.03125 262.703125 157.296875 C 262.703125 157.542969 263.003906 157.652344 263.167969 157.46875 C 263.777344 156.796875 264.074219 156.449219 264.085938 156.433594 C 264.148438 156.222656 263.921875 156.058594 263.738281 156.179688 Z M 261.109375 157.257812 C 260.640625 157.40625 260.402344 157.96875 260.582031 158.523438 C 260.757812 159.070312 261.285156 159.398438 261.75 159.246094 C 262.222656 159.097656 262.457031 158.53125 262.277344 157.980469 C 262.101562 157.433594 261.574219 157.105469 261.109375 157.257812 Z M 123.117188 159.703125 C 122.757812 159.523438 122.269531 159.769531 122.019531 160.257812 C 121.769531 160.742188 121.859375 161.289062 122.21875 161.472656 C 122.578125 161.652344 123.070312 161.40625 123.316406 160.917969 C 123.570312 160.433594 123.476562 159.886719 123.117188 159.703125 Z M 131.1875 165.617188 C 129.722656 165.269531 127.625 164.324219 127.742188 162.625 C 127.769531 162.125 127.558594 161.761719 127.113281 161.515625 C 126.261719 161.050781 125.132812 161.535156 125.597656 162.167969 C 125.769531 162.40625 126.03125 162.550781 126.367188 162.617188 C 126.613281 162.652344 126.796875 162.859375 126.816406 163.105469 C 126.816406 163.117188 126.796875 163.226562 126.761719 163.433594 C 126.707031 163.734375 126.832031 164.035156 127.078125 164.207031 C 127.898438 164.796875 128.585938 165.6875 129.160156 166.878906 C 129.34375 167.269531 129.851562 167.378906 130.179688 167.097656 L 131.316406 166.132812 C 131.507812 165.980469 131.425781 165.671875 131.1875 165.617188 Z M 135.925781 163.925781 C 135.671875 163.707031 135.214844 163.496094 134.550781 163.296875 C 134.308594 163.226562 134.089844 163.480469 134.199219 163.707031 C 134.550781 164.480469 135.089844 164.753906 135.808594 164.515625 C 136.0625 164.433594 136.125 164.105469 135.925781 163.925781 Z M 149.8125 164.542969 C 149.71875 164.28125 149.164062 164.234375 148.574219 164.445312 C 147.980469 164.652344 147.574219 165.023438 147.660156 165.289062 C 147.753906 165.550781 148.308594 165.597656 148.902344 165.390625 C 149.492188 165.179688 149.902344 164.808594 149.8125 164.542969 Z M 152.945312 166.042969 C 152.9375 166.398438 153.019531 166.625 153.183594 166.742188 C 153.382812 166.890625 153.65625 166.707031 153.621094 166.453125 C 153.601562 166.296875 153.519531 166.125 153.375 165.917969 C 153.246094 165.726562 152.945312 165.816406 152.945312 166.042969 Z M 142.679688 168.789062 C 143.5 168.308594 143.726562 167.207031 143.027344 167.171875 C 142.027344 167.117188 141.554688 167.507812 141.609375 168.351562 C 141.652344 169.035156 142.015625 169.179688 142.679688 168.789062 Z M 151.191406 167.40625 C 151.046875 167.371094 150.957031 167.363281 150.917969 167.371094 C 150.835938 167.390625 150.78125 167.472656 150.792969 167.550781 C 150.800781 167.632812 150.863281 167.699219 150.945312 167.699219 C 150.992188 167.707031 151.074219 167.679688 151.210938 167.625 C 151.308594 167.578125 151.300781 167.433594 151.191406 167.40625 Z M 131.832031 168.863281 C 131.625 168.851562 131.386719 169.027344 131.144531 169.390625 C 131.023438 169.5625 131.160156 169.789062 131.378906 169.808594 C 131.570312 169.816406 131.789062 169.625 132.035156 169.234375 C 132.125 169.082031 132.023438 168.871094 131.832031 168.863281 Z M 186.9375 170.816406 C 186.671875 170.671875 186.25 170.945312 185.992188 171.421875 C 185.734375 171.898438 185.734375 172.398438 186.003906 172.542969 C 186.269531 172.691406 186.6875 172.417969 186.949219 171.941406 C 187.207031 171.460938 187.207031 170.960938 186.9375 170.816406 Z M 233.761719 173.71875 C 233.769531 173.773438 233.84375 173.855469 233.980469 173.972656 C 234.0625 174.042969 234.1875 174.042969 234.269531 173.964844 C 234.351562 173.882812 234.363281 173.761719 234.289062 173.671875 C 233.714844 172.953125 233.714844 172.207031 234.289062 171.433594 C 234.425781 171.253906 234.269531 170.988281 234.042969 171.027344 C 233.996094 171.035156 233.433594 171.351562 232.351562 171.988281 C 232.296875 172.027344 232.296875 172.109375 232.34375 172.144531 L 232.535156 172.300781 C 232.6875 172.417969 232.714844 172.644531 232.597656 172.808594 C 231.871094 173.835938 231.480469 174.945312 231.425781 176.136719 C 231.414062 176.398438 231.597656 176.628906 231.851562 176.664062 C 232.117188 176.707031 232.359375 176.546875 232.425781 176.289062 L 233.105469 173.691406 C 233.199219 173.34375 233.699219 173.363281 233.761719 173.71875 Z M 228.714844 172.246094 C 228.460938 172.445312 228.167969 172.617188 227.851562 172.761719 C 227.75 172.808594 227.679688 172.910156 227.660156 173.015625 C 227.652344 173.136719 227.660156 173.253906 227.707031 173.355469 C 227.777344 173.515625 228.003906 173.542969 228.105469 173.398438 C 228.351562 173.042969 228.625 172.753906 228.933594 172.515625 C 229.234375 172.289062 229.589844 172.097656 229.988281 171.945312 C 230.160156 171.878906 230.1875 171.664062 230.050781 171.542969 C 229.960938 171.480469 229.851562 171.433594 229.734375 171.417969 C 229.625 171.40625 229.515625 171.453125 229.441406 171.535156 C 229.214844 171.808594 228.980469 172.042969 228.714844 172.246094 Z M 257.757812 173.015625 C 257.609375 172.882812 257.367188 172.773438 257.019531 172.707031 C 256.773438 172.664062 256.621094 172.972656 256.800781 173.136719 C 256.957031 173.273438 257.203125 173.371094 257.558594 173.4375 C 257.792969 173.472656 257.9375 173.179688 257.757812 173.015625 Z M 235.214844 176.019531 L 237.425781 175.335938 C 237.625 175.273438 237.851562 175.289062 238.042969 175.390625 C 239.289062 176.074219 240.289062 175.78125 241.035156 174.519531 C 241.308594 174.054688 240.789062 173.527344 240.316406 173.800781 L 238.042969 175.109375 C 237.898438 175.199219 237.726562 175.21875 237.554688 175.171875 C 236.78125 174.972656 235.960938 175.152344 235.078125 175.71875 C 235.007812 175.761719 234.980469 175.855469 235.015625 175.925781 C 235.050781 176 235.132812 176.046875 235.214844 176.019531 Z M 228.023438 176.019531 C 228.1875 176 228.570312 175.609375 229.167969 174.835938 C 229.261719 174.71875 229.140625 174.5625 229.007812 174.609375 C 228.960938 174.617188 228.570312 174.945312 227.832031 175.582031 C 227.640625 175.746094 227.777344 176.054688 228.023438 176.019531 Z M 141.371094 175.4375 C 141.027344 175.574219 140.800781 175.691406 140.679688 175.773438 C 140.5625 175.863281 140.535156 176.027344 140.625 176.144531 C 140.71875 176.261719 140.890625 176.308594 141.027344 176.234375 C 141.226562 176.136719 141.417969 175.964844 141.597656 175.734375 C 141.726562 175.582031 141.554688 175.363281 141.371094 175.4375 Z M 184.328125 179.589844 C 184.214844 179.535156 183.980469 179.792969 183.792969 180.167969 C 183.605469 180.535156 183.542969 180.882812 183.648438 180.9375 C 183.761719 180.992188 183.996094 180.738281 184.183594 180.363281 C 184.371094 179.992188 184.433594 179.644531 184.328125 179.589844 Z M 192.226562 183.304688 C 192.0625 183.136719 191.753906 183.183594 191.53125 183.402344 C 191.308594 183.621094 191.261719 183.929688 191.421875 184.097656 C 191.589844 184.265625 191.898438 184.21875 192.121094 184 C 192.34375 183.78125 192.390625 183.472656 192.226562 183.304688 Z M 180.570312 184.019531 C 180.597656 183.992188 180.652344 183.917969 180.722656 183.808594 C 180.851562 183.609375 180.667969 183.363281 180.441406 183.4375 C 180.269531 183.5 180.179688 183.648438 180.1875 183.875 C 180.1875 184.074219 180.433594 184.164062 180.570312 184.019531 Z M 242.855469 183.738281 C 242.808594 183.539062 242.644531 183.4375 242.382812 183.445312 C 242.152344 183.445312 242.0625 183.554688 242.109375 183.78125 C 242.136719 183.929688 242.261719 184.027344 242.480469 184.09375 C 242.699219 184.15625 242.910156 183.957031 242.855469 183.738281 Z M 152.082031 184.511719 C 152.109375 184.28125 152.066406 184.101562 151.964844 183.964844 C 151.808594 183.753906 151.636719 183.746094 151.464844 183.9375 C 151.335938 184.066406 151.335938 184.253906 151.472656 184.511719 C 151.628906 184.800781 152.046875 184.800781 152.082031 184.511719 Z M 253.320312 184.101562 L 252.292969 184.292969 C 252.027344 184.335938 251.972656 184.691406 252.210938 184.808594 C 252.621094 185.019531 253.054688 184.992188 253.539062 184.746094 C 253.691406 184.664062 253.765625 184.492188 253.710938 184.328125 C 253.65625 184.164062 253.484375 184.074219 253.320312 184.101562 Z M 150.4375 185.511719 C 150.445312 185.628906 150.5625 185.984375 150.792969 186.574219 C 150.847656 186.71875 151.011719 186.8125 151.164062 186.773438 C 151.320312 186.738281 151.429688 186.59375 151.410156 186.429688 C 151.410156 186.417969 151.183594 186.074219 150.726562 185.410156 C 150.636719 185.285156 150.429688 185.347656 150.4375 185.511719 Z M 148.371094 188.121094 C 148.253906 187.984375 148.007812 188 147.820312 188.164062 C 147.636719 188.328125 147.582031 188.566406 147.699219 188.703125 C 147.820312 188.839844 148.0625 188.820312 148.25 188.660156 C 148.4375 188.492188 148.492188 188.257812 148.371094 188.121094 Z M 175.03125 190.300781 L 172.8125 193.03125 C 172.570312 193.332031 172.695312 193.785156 173.058594 193.921875 C 173.714844 194.167969 174.386719 194.867188 175.085938 196.039062 C 175.242188 196.304688 175.550781 196.421875 175.839844 196.339844 L 176.152344 196.238281 C 176.367188 196.175781 176.460938 195.921875 176.34375 195.730469 C 175.921875 195.046875 175.394531 194.414062 174.757812 193.820312 C 174.433594 193.503906 174.285156 193.277344 174.332031 193.140625 C 174.378906 192.976562 174.597656 192.722656 174.996094 192.382812 C 175.058594 192.328125 175.097656 192.257812 175.113281 192.183594 L 175.523438 190.546875 C 175.597656 190.257812 175.222656 190.066406 175.03125 190.300781 Z M 122.160156 191.773438 C 121.804688 191.347656 121.578125 191.113281 121.46875 191.085938 C 121.214844 191.011719 121.011719 191.292969 121.175781 191.503906 C 121.441406 191.839844 121.703125 192.039062 121.949219 192.101562 C 122.140625 192.148438 122.285156 191.929688 122.160156 191.773438 Z M 247.492188 191.625 C 247.308594 191.476562 246.800781 191.800781 246.332031 192.351562 C 245.871094 192.902344 245.644531 193.464844 245.816406 193.617188 C 246 193.765625 246.507812 193.4375 246.976562 192.890625 C 247.4375 192.339844 247.664062 191.773438 247.492188 191.625 Z M 195.136719 206.097656 C 195.410156 205.488281 195.863281 204.914062 196.492188 204.394531 C 196.601562 204.304688 196.746094 204.269531 196.882812 204.285156 C 197.472656 204.367188 197.792969 203.878906 197.820312 202.824219 C 197.847656 201.730469 198.527344 200.851562 199.402344 200.785156 C 200.917969 200.6875 202.519531 200.011719 204.203125 198.765625 C 204.683594 198.414062 204.65625 197.695312 204.15625 197.402344 C 203.800781 197.183594 203.445312 197.132812 203.09375 197.230469 C 201.328125 197.75 199.644531 198.003906 198.054688 198.011719 C 197.628906 198.011719 197.226562 197.839844 196.9375 197.53125 C 195.808594 196.332031 195.234375 194.804688 195.207031 192.9375 C 195.199219 192.277344 194.5 191.855469 193.910156 192.15625 C 192.925781 192.667969 192.535156 193.121094 192.734375 193.511719 C 193.152344 194.367188 193.933594 196.15625 195.082031 198.894531 C 195.300781 199.421875 195.363281 200.003906 195.273438 200.578125 L 194.363281 205.859375 C 194.324219 206.058594 194.445312 206.261719 194.644531 206.3125 C 194.84375 206.378906 195.054688 206.285156 195.136719 206.097656 Z M 121.167969 192.621094 C 120.996094 192.519531 120.777344 192.546875 120.53125 192.710938 C 120.367188 192.820312 120.351562 193.058594 120.503906 193.15625 C 120.660156 193.257812 120.886719 193.195312 121.1875 192.949219 C 121.296875 192.855469 121.285156 192.695312 121.167969 192.621094 Z M 172.6875 198.175781 C 172.550781 198.003906 172.203125 197.722656 171.640625 197.320312 C 171.433594 197.167969 171.132812 197.25 171.03125 197.484375 C 170.785156 198.058594 170.46875 198.132812 170.058594 197.722656 C 169.769531 197.421875 168.984375 196.675781 167.703125 195.484375 C 167.484375 195.277344 167.320312 195.011719 167.238281 194.722656 C 167.085938 194.175781 166.660156 193.601562 165.957031 193.003906 C 165.765625 192.847656 165.496094 193.019531 165.550781 193.257812 C 165.578125 193.382812 166.003906 193.8125 166.832031 194.539062 C 167.132812 194.792969 167.285156 195.183594 167.25 195.574219 C 167.132812 196.875 167.902344 197.839844 169.566406 198.46875 C 169.796875 198.558594 170.050781 198.566406 170.277344 198.496094 C 171.351562 198.160156 172.105469 198.113281 172.550781 198.347656 C 172.660156 198.402344 172.769531 198.277344 172.6875 198.175781 Z M 126.605469 194.421875 C 126.578125 194.113281 126.386719 193.859375 126.023438 193.648438 C 125.851562 193.546875 125.722656 193.503906 125.652344 193.503906 C 125.503906 193.503906 125.433594 193.675781 125.523438 193.785156 L 126.222656 194.585938 C 126.359375 194.738281 126.625 194.628906 126.605469 194.421875 Z M 116.746094 193.941406 C 116.484375 193.964844 116.304688 194.285156 116.339844 194.652344 C 116.375 195.011719 116.621094 195.292969 116.878906 195.265625 C 117.140625 195.238281 117.320312 194.921875 117.28125 194.554688 C 117.25 194.195312 117.003906 193.910156 116.746094 193.941406 Z M 186.324219 212.523438 L 186.007812 200.09375 C 185.980469 199.066406 185.371094 198.140625 184.441406 197.703125 L 180.042969 195.640625 C 179.988281 195.613281 179.933594 195.558594 179.90625 195.503906 L 179.316406 193.992188 C 179.234375 193.777344 178.898438 193.832031 178.898438 194.066406 C 178.886719 194.574219 179.015625 195.175781 179.261719 195.859375 C 179.359375 196.128906 179.585938 196.347656 179.859375 196.441406 C 181.777344 197.09375 182.269531 198.53125 181.332031 200.757812 C 181.007812 201.53125 180.398438 201.824219 180.167969 202.386719 C 180.0625 202.660156 180.035156 202.960938 180.078125 203.242188 C 180.550781 205.921875 180.996094 207.558594 181.414062 208.152344 C 182.089844 209.097656 183.460938 210.660156 185.523438 212.851562 C 185.816406 213.160156 186.335938 212.953125 186.324219 212.523438 Z M 185.242188 194.457031 C 185.351562 194.886719 184.933594 195.230469 183.996094 195.503906 C 183.652344 195.601562 183.585938 196.066406 183.898438 196.257812 C 184.542969 196.648438 185.0625 197.210938 185.433594 197.949219 C 185.589844 198.25 186.042969 198.132812 186.035156 197.792969 C 186.015625 196.914062 186.0625 196.023438 186.160156 195.101562 C 186.1875 194.832031 186.050781 194.519531 185.742188 194.183594 C 185.535156 193.957031 185.171875 194.167969 185.242188 194.457031 Z M 202.515625 195.90625 C 202.375 195.503906 201.820312 195.332031 201.265625 195.519531 C 200.71875 195.703125 200.382812 196.183594 200.523438 196.59375 C 200.664062 196.996094 201.21875 197.167969 201.769531 196.980469 C 202.320312 196.792969 202.65625 196.3125 202.515625 195.90625 Z M 257.792969 200.53125 C 257.820312 200.53125 258.449219 200.066406 259.683594 199.148438 C 260.003906 198.914062 260.457031 198.976562 260.695312 199.292969 C 261.429688 200.285156 262.019531 200.796875 262.476562 200.832031 C 262.777344 200.859375 262.957031 200.511719 262.777344 200.277344 C 261.046875 198.066406 259.910156 198.558594 257.703125 200.113281 C 257.53125 200.230469 257.59375 200.496094 257.792969 200.53125 Z M 124.578125 199.320312 C 124.285156 199.167969 123.914062 199.320312 123.734375 199.65625 C 123.558594 199.996094 123.648438 200.394531 123.9375 200.542969 C 124.230469 200.695312 124.605469 200.539062 124.785156 200.207031 C 124.960938 199.867188 124.867188 199.46875 124.578125 199.320312 Z M 220.777344 202.214844 C 220.984375 202.121094 221.230469 202.078125 221.496094 202.078125 C 222.113281 202.066406 222.269531 201.214844 221.6875 200.984375 C 221.066406 200.75 220.578125 200.941406 220.214844 201.550781 C 219.984375 201.933594 220.367188 202.378906 220.777344 202.214844 Z M 255.765625 201.140625 C 255.527344 201.167969 255.3125 201.257812 255.109375 201.394531 C 254.957031 201.503906 255.054688 201.75 255.238281 201.703125 C 255.691406 201.605469 255.929688 201.53125 255.957031 201.503906 C 256.101562 201.359375 255.972656 201.113281 255.765625 201.140625 Z M 261.875 201.886719 L 261.113281 201.90625 C 260.820312 201.914062 260.722656 202.304688 260.976562 202.449219 C 261.238281 202.605469 261.574219 202.578125 261.992188 202.367188 C 262.238281 202.242188 262.148438 201.878906 261.875 201.886719 Z M 129.113281 202.511719 C 129.097656 202.367188 128.824219 202.285156 128.5 202.316406 C 128.179688 202.351562 127.925781 202.488281 127.9375 202.625 C 127.949219 202.769531 128.222656 202.851562 128.546875 202.820312 C 128.871094 202.785156 129.125 202.648438 129.113281 202.511719 Z M 173.449219 206.085938 L 172.058594 204.921875 C 171.621094 204.558594 170.957031 204.703125 170.714844 205.222656 L 170.023438 206.707031 C 169.902344 206.949219 169.667969 207.125 169.402344 207.160156 C 168.429688 207.304688 167.25 206.933594 165.859375 206.050781 C 165.613281 205.894531 165.320312 206.195312 165.496094 206.433594 L 166.050781 207.234375 C 166.238281 207.496094 166.121094 207.871094 165.820312 207.988281 L 164.722656 208.414062 C 164.484375 208.503906 164.359375 208.761719 164.421875 209.003906 C 164.484375 209.25 164.710938 209.40625 164.96875 209.378906 C 166.683594 209.167969 168.3125 209.25 169.851562 209.640625 C 170.132812 209.714844 170.429688 209.695312 170.703125 209.585938 L 171.304688 209.351562 C 171.648438 209.214844 171.996094 209.570312 171.839844 209.914062 C 171.242188 211.304688 171.050781 212.398438 171.269531 213.171875 C 171.339844 213.433594 171.195312 213.707031 170.933594 213.789062 L 165.894531 215.34375 C 165.457031 215.480469 165.25 215.96875 165.449219 216.378906 C 166.902344 219.34375 169.757812 219.515625 172.941406 220.171875 C 173.523438 220.289062 174.070312 220.507812 174.578125 220.816406 C 178.140625 222.925781 179.898438 226.074219 183.269531 230.65625 C 183.386719 230.828125 183.617188 230.9375 183.933594 230.984375 C 184.097656 231.011719 184.242188 230.890625 184.253906 230.726562 C 184.660156 223.71875 182.960938 217.453125 179.140625 211.925781 C 178.859375 211.515625 178.613281 211.078125 178.40625 210.625 C 177.667969 209.03125 176.632812 205.394531 175.25 204.433594 C 174.6875 204.03125 174.152344 203.90625 173.640625 204.042969 C 173.257812 204.148438 173.113281 204.613281 173.359375 204.921875 C 173.804688 205.476562 174.03125 205.785156 174.023438 205.851562 C 173.996094 206.132812 173.667969 206.269531 173.449219 206.085938 Z M 140.289062 204.433594 C 140.207031 204.550781 140.207031 204.714844 140.28125 204.921875 C 140.351562 205.113281 140.617188 205.140625 140.71875 204.960938 C 140.78125 204.839844 140.78125 204.695312 140.726562 204.503906 C 140.671875 204.304688 140.40625 204.257812 140.289062 204.433594 Z M 221.960938 204.605469 C 221.621094 204.578125 221.339844 204.613281 221.113281 204.730469 C 220.769531 204.90625 220.824219 205.414062 221.195312 205.53125 C 221.632812 205.667969 221.976562 205.625 222.230469 205.386719 C 222.523438 205.125 222.351562 204.640625 221.960938 204.605469 Z M 131.144531 204.949219 C 131.160156 205.085938 131.289062 205.125 131.523438 205.078125 C 131.597656 205.070312 131.644531 205.003906 131.632812 204.933594 C 131.625 204.859375 131.570312 204.804688 131.496094 204.804688 C 131.441406 204.796875 131.359375 204.804688 131.261719 204.8125 C 131.1875 204.824219 131.132812 204.878906 131.144531 204.949219 Z M 255.882812 205.214844 C 255.820312 205.132812 255.730469 205.058594 255.621094 205.003906 C 255.445312 204.914062 255.257812 205.097656 255.347656 205.269531 C 255.402344 205.367188 255.527344 205.441406 255.71875 205.488281 C 255.875 205.523438 255.984375 205.332031 255.882812 205.214844 Z M 204.765625 216.570312 L 204.492188 216.917969 C 204.363281 217.078125 204.164062 217.171875 203.957031 217.152344 C 202.820312 217.0625 201.621094 216.570312 200.347656 215.679688 C 199.800781 215.296875 199.847656 214.46875 200.4375 214.152344 C 200.882812 213.914062 201.347656 213.46875 201.828125 212.804688 C 202.101562 212.433594 201.992188 211.90625 201.59375 211.667969 L 201.164062 211.425781 C 200.753906 211.1875 200.828125 210.570312 201.292969 210.453125 C 201.828125 210.316406 202.171875 209.933594 202.328125 209.316406 C 202.4375 208.886719 202.683594 208.503906 203.039062 208.242188 C 204.265625 207.316406 205.136719 206.433594 205.65625 205.585938 C 205.65625 205.578125 205.65625 205.578125 205.648438 205.570312 L 205.546875 205.441406 C 205.492188 205.359375 205.375 205.351562 205.3125 205.414062 C 202.601562 207.851562 200.292969 210.570312 198.390625 213.578125 C 198.273438 213.761719 198.089844 213.886719 197.871094 213.925781 C 197.21875 214.035156 196.871094 213.851562 196.828125 213.386719 C 196.800781 213.0625 196.398438 212.925781 196.171875 213.160156 C 194.84375 214.570312 194.089844 215.742188 193.910156 216.671875 C 192.917969 221.652344 194.390625 227.710938 194.390625 232.109375 C 194.390625 232.308594 194.644531 232.410156 194.78125 232.253906 C 199.390625 227 202.808594 221.871094 205.039062 216.871094 C 205.054688 216.816406 205.046875 216.753906 205.011719 216.699219 C 204.929688 216.597656 204.863281 216.542969 204.800781 216.550781 C 204.792969 216.550781 204.773438 216.5625 204.765625 216.570312 Z M 254.21875 206.960938 C 254.121094 206.441406 253.9375 206.152344 253.675781 206.078125 C 253.238281 205.960938 253.101562 206.125 253.253906 206.585938 C 253.375 206.941406 253.621094 207.140625 254 207.1875 C 254.128906 207.207031 254.238281 207.085938 254.21875 206.960938 Z M 139.828125 206.46875 C 139.636719 206.160156 139.027344 206.214844 138.464844 206.578125 C 137.917969 206.941406 137.625 207.476562 137.820312 207.78125 C 138.015625 208.085938 138.625 208.03125 139.183594 207.671875 C 139.734375 207.304688 140.027344 206.769531 139.828125 206.46875 Z M 228.332031 207.058594 C 228.105469 207.34375 228.332031 207.886719 229.007812 208.695312 C 229.195312 208.925781 229.542969 208.96875 229.777344 208.789062 C 229.804688 208.769531 229.898438 208.652344 230.070312 208.433594 C 230.242188 208.214844 230.34375 208.085938 230.351562 208.070312 C 230.46875 207.789062 230.351562 207.46875 230.078125 207.332031 C 229.140625 206.867188 228.558594 206.777344 228.332031 207.058594 Z M 157.664062 207.140625 C 157.554688 207.296875 157.503906 207.386719 157.492188 207.421875 C 157.457031 207.570312 157.636719 207.667969 157.738281 207.550781 C 157.828125 207.433594 157.855469 207.304688 157.820312 207.167969 C 157.800781 207.097656 157.710938 207.078125 157.664062 207.140625 Z M 137.480469 209.1875 C 138.054688 208.714844 137.570312 207.796875 136.851562 207.996094 C 135.625 208.332031 135.023438 209.085938 135.042969 210.261719 C 135.050781 210.640625 135.496094 210.84375 135.789062 210.597656 Z M 237.0625 209.734375 C 237.34375 209.398438 237.425781 209.152344 237.296875 209.015625 C 237.207031 208.90625 236.960938 209.003906 236.769531 209.222656 C 236.6875 209.324219 236.644531 209.441406 236.652344 209.585938 C 236.652344 209.804688 236.925781 209.898438 237.0625 209.734375 Z M 160.867188 211.722656 C 160.820312 211.097656 160.457031 210.570312 159.765625 210.140625 C 159.648438 210.070312 159.519531 210.195312 159.585938 210.316406 L 160.476562 211.851562 C 160.585938 212.042969 160.882812 211.953125 160.867188 211.722656 Z M 244.355469 211.371094 C 244.410156 211.496094 244.453125 211.761719 244.480469 212.160156 C 244.507812 212.515625 244.964844 212.652344 245.183594 212.359375 C 245.617188 211.777344 245.746094 211.277344 245.574219 210.859375 C 245.398438 210.441406 244.945312 210.179688 244.226562 210.078125 C 243.871094 210.035156 243.644531 210.453125 243.882812 210.722656 C 244.144531 211.023438 244.300781 211.242188 244.355469 211.371094 Z M 242.980469 212.480469 C 242.773438 212.578125 242.734375 212.777344 242.855469 213.070312 C 242.964844 213.332031 243.164062 213.40625 243.453125 213.296875 C 243.746094 213.1875 243.898438 213.070312 243.910156 212.941406 C 243.953125 212.515625 243.425781 212.25 242.980469 212.480469 Z M 143.199219 213.078125 C 143.042969 213.132812 142.9375 213.242188 142.855469 213.40625 C 142.734375 213.679688 143.042969 213.941406 143.289062 213.769531 C 143.328125 213.753906 143.398438 213.679688 143.507812 213.5625 C 143.71875 213.332031 143.492188 212.96875 143.199219 213.078125 Z M 160.820312 213.34375 C 160.566406 213.40625 160.457031 213.84375 160.582031 214.308594 C 160.703125 214.769531 161.003906 215.097656 161.257812 215.035156 C 161.511719 214.96875 161.621094 214.535156 161.496094 214.070312 C 161.375 213.605469 161.074219 213.277344 160.820312 213.34375 Z M 205.765625 214.816406 C 205.765625 214.597656 205.582031 214.414062 205.367188 214.414062 C 205.148438 214.414062 204.964844 214.597656 204.964844 214.816406 C 204.964844 215.035156 205.148438 215.214844 205.367188 215.214844 C 205.582031 215.214844 205.765625 215.035156 205.765625 214.816406 Z M 187.878906 268.449219 C 187.625 268.425781 187.378906 269.027344 187.328125 269.777344 C 187.269531 270.527344 187.433594 271.152344 187.683594 271.167969 C 187.933594 271.191406 188.179688 270.589844 188.234375 269.839844 C 188.289062 269.089844 188.125 268.460938 187.878906 268.449219 Z M 188.535156 277.828125 L 188.960938 275.371094 C 189.042969 274.917969 188.445312 274.679688 188.179688 275.0625 C 187.753906 275.707031 187.835938 276.636719 188.433594 277.84375 C 188.453125 277.890625 188.523438 277.882812 188.535156 277.828125 Z M 188.535156 277.828125 "
       fill-opacity="1"
       fill-rule="nonzero"
       id="path35" />
  </g>
</svg>
