<?xml version="1.0" encoding="UTF-8" standalone="no"?>
<svg
   width="500"
   zoomAndPan="magnify"
   viewBox="0 0 375 374.999991"
   height="500"
   preserveAspectRatio="xMidYMid meet"
   version="1.0"
   id="svg68"
   sodipodi:docname="medal.svg"
   inkscape:version="1.2.2 (b0a8486541, 2022-12-01)"
   xmlns:inkscape="http://www.inkscape.org/namespaces/inkscape"
   xmlns:sodipodi="http://sodipodi.sourceforge.net/DTD/sodipodi-0.dtd"
   xmlns="http://www.w3.org/2000/svg"
   xmlns:svg="http://www.w3.org/2000/svg">
  <sodipodi:namedview
     id="namedview70"
     pagecolor="#ffffff"
     bordercolor="#000000"
     borderopacity="0.25"
     inkscape:showpageshadow="2"
     inkscape:pageopacity="0.0"
     inkscape:pagecheckerboard="0"
     inkscape:deskcolor="#d1d1d1"
     showgrid="false"
     inkscape:zoom="1.712"
     inkscape:cx="158.29439"
     inkscape:cy="250"
     inkscape:window-width="1920"
     inkscape:window-height="1002"
     inkscape:window-x="1920"
     inkscape:window-y="0"
     inkscape:window-maximized="1"
     inkscape:current-layer="svg68" />
  <defs
     id="defs26">
    <clipPath
       id="dbbc2ac0df">
      <path
         d="M 45 0 L 330 0 C 354.851562 0 375 20.148438 375 45 L 375 330 C 375 354.851562 354.851562 375 330 375 L 45 375 C 20.148438 375 0 354.851562 0 330 L 0 45 C 0 20.148438 20.148438 0 45 0 Z M 45 0 "
         clip-rule="nonzero"
         id="path2" />
    </clipPath>
    <clipPath
       id="15be55f514">
      <path
         d="M 0 0 L 375 0 L 375 375 L 0 375 Z M 0 0 "
         clip-rule="nonzero"
         id="path5" />
    </clipPath>
    <clipPath
       id="fbc4b66076">
      <path
         d="M 45 0 L 330 0 C 354.851562 0 375 20.148438 375 45 L 375 330 C 375 354.851562 354.851562 375 330 375 L 45 375 C 20.148438 375 0 354.851562 0 330 L 0 45 C 0 20.148438 20.148438 0 45 0 Z M 45 0 "
         clip-rule="nonzero"
         id="path8" />
    </clipPath>
    <clipPath
       id="72361529be">
      <rect
         x="0"
         width="375"
         y="0"
         height="375"
         id="rect11" />
    </clipPath>
    <clipPath
       id="6cdec360c8">
      <path
         d="M 138 185 L 237 185 L 237 284.746094 L 138 284.746094 Z M 138 185 "
         clip-rule="nonzero"
         id="path14" />
    </clipPath>
    <clipPath
       id="2bd941b476">
      <path
         d="M 162 90.496094 L 260.511719 90.496094 L 260.511719 177 L 162 177 Z M 162 90.496094 "
         clip-rule="nonzero"
         id="path17" />
    </clipPath>
    <clipPath
       id="186730b8fe">
      <path
         d="M 138 185 L 237 185 L 237 284.746094 L 138 284.746094 Z M 138 185 "
         clip-rule="nonzero"
         id="path20" />
    </clipPath>
    <clipPath
       id="874035f461">
      <path
         d="M 114.261719 90.496094 L 191 90.496094 L 191 177 L 114.261719 177 Z M 114.261719 90.496094 "
         clip-rule="nonzero"
         id="path23" />
    </clipPath>
  </defs>
  <g
     clip-path="url(#dbbc2ac0df)"
     id="g42">
    <g
       transform="matrix(1, 0, 0, 1, 0, 0)"
       id="g40">
      <g
         clip-path="url(#72361529be)"
         id="g38">
        <g
           clip-path="url(#15be55f514)"
           id="g36">
          <g
             clip-path="url(#fbc4b66076)"
             id="g34">
            <rect
               x="-82.5"
               width="540"
               fill="#417dbc"
               height="539.999987"
               y="-82.499998"
               fill-opacity="1"
               id="rect32" />
          </g>
        </g>
      </g>
    </g>
  </g>
  <path
     fill="#fedc07"
     d="M 187.5 267.953125 C 169.296875 267.953125 154.523438 253.179688 154.523438 234.980469 C 154.523438 216.777344 169.296875 202.003906 187.5 202.003906 C 205.699219 202.003906 220.472656 216.777344 220.472656 234.980469 C 220.472656 253.179688 205.699219 267.953125 187.5 267.953125 Z M 187.5 207.796875 C 172.53125 207.796875 160.320312 220.011719 160.320312 234.980469 C 160.320312 249.945312 172.53125 262.160156 187.5 262.160156 C 202.464844 262.160156 214.679688 249.945312 214.679688 234.980469 C 214.679688 220.011719 202.464844 207.796875 187.5 207.796875 Z M 187.5 207.796875 "
     fill-opacity="1"
     fill-rule="nonzero"
     id="path44" />
  <g
     clip-path="url(#6cdec360c8)"
     id="g48">
    <path
       fill="#fedc07"
       d="M 187.5 284.222656 C 160.320312 284.222656 138.253906 262.109375 138.253906 234.980469 C 138.253906 207.847656 160.367188 185.734375 187.5 185.734375 C 214.628906 185.734375 236.742188 207.847656 236.742188 234.980469 C 236.742188 262.109375 214.679688 284.222656 187.5 284.222656 Z M 187.5 191.480469 C 163.503906 191.480469 144.050781 210.984375 144.050781 234.929688 C 144.050781 258.875 163.554688 278.378906 187.5 278.378906 C 211.445312 278.378906 230.949219 258.875 230.949219 234.929688 C 230.949219 210.984375 211.492188 191.480469 187.5 191.480469 Z M 187.5 191.480469 "
       fill-opacity="1"
       fill-rule="nonzero"
       id="path46" />
  </g>
  <path
     fill="#fedc07"
     d="M 204.203125 194.617188 C 202.609375 194.617188 201.304688 193.316406 201.304688 191.722656 L 201.304688 175.742188 C 201.304688 174.148438 202.609375 172.847656 204.203125 172.847656 C 205.796875 172.847656 207.097656 174.148438 207.097656 175.742188 L 207.097656 191.722656 C 207.097656 193.316406 205.796875 194.617188 204.203125 194.617188 Z M 204.203125 194.617188 "
     fill-opacity="1"
     fill-rule="nonzero"
     id="path50" />
  <g
     clip-path="url(#2bd941b476)"
     id="g54">
    <path
       fill="#fedc07"
       d="M 165.582031 176.5625 C 165.050781 176.5625 164.46875 176.417969 163.988281 176.082031 C 162.636719 175.210938 162.25 173.425781 163.117188 172.074219 L 215.160156 92.125 C 215.691406 91.304688 216.609375 90.824219 217.574219 90.824219 L 257.839844 90.824219 C 258.898438 90.824219 259.867188 91.402344 260.347656 92.320312 C 260.878906 93.238281 260.832031 94.347656 260.300781 95.265625 L 211.878906 175.164062 C 211.347656 176.03125 210.429688 176.5625 209.417969 176.5625 L 187.5 176.5625 C 185.90625 176.5625 184.601562 175.261719 184.601562 173.667969 C 184.601562 172.074219 185.90625 170.769531 187.5 170.769531 L 207.773438 170.769531 L 252.671875 96.617188 L 219.121094 96.617188 L 168.042969 175.210938 C 167.464844 176.082031 166.546875 176.5625 165.582031 176.5625 Z M 165.582031 176.5625 "
       fill-opacity="1"
       fill-rule="nonzero"
       id="path52" />
  </g>
  <path
     fill="#fedc07"
     d="M 187.5 267.953125 C 169.296875 267.953125 154.523438 253.179688 154.523438 234.980469 C 154.523438 216.777344 169.296875 202.003906 187.5 202.003906 C 205.699219 202.003906 220.472656 216.777344 220.472656 234.980469 C 220.472656 253.179688 205.699219 267.953125 187.5 267.953125 Z M 187.5 207.796875 C 172.53125 207.796875 160.320312 220.011719 160.320312 234.980469 C 160.320312 249.945312 172.53125 262.160156 187.5 262.160156 C 202.464844 262.160156 214.679688 249.945312 214.679688 234.980469 C 214.679688 220.011719 202.464844 207.796875 187.5 207.796875 Z M 187.5 207.796875 "
     fill-opacity="1"
     fill-rule="nonzero"
     id="path56" />
  <g
     clip-path="url(#186730b8fe)"
     id="g60">
    <path
       fill="#fedc07"
       d="M 187.5 284.222656 C 160.320312 284.222656 138.253906 262.109375 138.253906 234.980469 C 138.253906 207.847656 160.367188 185.734375 187.5 185.734375 C 214.628906 185.734375 236.742188 207.847656 236.742188 234.980469 C 236.742188 262.109375 214.679688 284.222656 187.5 284.222656 Z M 187.5 191.480469 C 163.503906 191.480469 144.050781 210.984375 144.050781 234.929688 C 144.050781 258.875 163.554688 278.378906 187.5 278.378906 C 211.445312 278.378906 230.949219 258.875 230.949219 234.929688 C 230.949219 210.984375 211.492188 191.480469 187.5 191.480469 Z M 187.5 191.480469 "
       fill-opacity="1"
       fill-rule="nonzero"
       id="path58" />
  </g>
  <path
     fill="#fedc07"
     d="M 170.792969 194.617188 C 169.203125 194.617188 167.898438 193.316406 167.898438 191.722656 L 167.898438 175.742188 C 167.898438 174.148438 169.203125 172.847656 170.792969 172.847656 C 172.386719 172.847656 173.691406 174.148438 173.691406 175.742188 L 173.691406 191.722656 C 173.691406 193.316406 172.386719 194.617188 170.792969 194.617188 Z M 170.792969 194.617188 "
     fill-opacity="1"
     fill-rule="nonzero"
     id="path62" />
  <g
     clip-path="url(#874035f461)"
     id="g66">
    <path
       fill="#fedc07"
       d="M 187.5 176.5625 L 165.582031 176.5625 C 164.566406 176.5625 163.648438 176.03125 163.117188 175.164062 L 114.695312 95.214844 C 114.164062 94.300781 114.117188 93.1875 114.648438 92.273438 C 115.179688 91.355469 116.144531 90.773438 117.160156 90.773438 L 157.421875 90.773438 C 158.386719 90.773438 159.304688 91.257812 159.835938 92.078125 L 189.914062 138.761719 C 190.78125 140.113281 190.394531 141.898438 189.042969 142.769531 C 187.691406 143.636719 185.90625 143.253906 185.035156 141.898438 L 155.828125 96.617188 L 122.324219 96.617188 L 167.222656 170.769531 L 187.5 170.769531 C 189.089844 170.769531 190.394531 172.074219 190.394531 173.667969 C 190.394531 175.261719 189.089844 176.5625 187.5 176.5625 Z M 187.5 176.5625 "
       fill-opacity="1"
       fill-rule="nonzero"
       id="path64" />
  </g>
</svg>
