<?xml version="1.0" encoding="UTF-8" standalone="no"?>
<svg
   width="500"
   zoomAndPan="magnify"
   viewBox="0 0 375 374.999991"
   height="500"
   preserveAspectRatio="xMidYMid meet"
   version="1.0"
   id="svg39"
   sodipodi:docname="meal.svg"
   inkscape:version="1.2.2 (b0a8486541, 2022-12-01)"
   xmlns:inkscape="http://www.inkscape.org/namespaces/inkscape"
   xmlns:sodipodi="http://sodipodi.sourceforge.net/DTD/sodipodi-0.dtd"
   xmlns="http://www.w3.org/2000/svg"
   xmlns:svg="http://www.w3.org/2000/svg">
  <sodipodi:namedview
     id="namedview41"
     pagecolor="#ffffff"
     bordercolor="#000000"
     borderopacity="0.25"
     inkscape:showpageshadow="2"
     inkscape:pageopacity="0.0"
     inkscape:pagecheckerboard="0"
     inkscape:deskcolor="#d1d1d1"
     showgrid="false"
     inkscape:zoom="1.712"
     inkscape:cx="158.29439"
     inkscape:cy="250"
     inkscape:window-width="1920"
     inkscape:window-height="1002"
     inkscape:window-x="1920"
     inkscape:window-y="0"
     inkscape:window-maximized="1"
     inkscape:current-layer="svg39" />
  <defs
     id="defs17">
    <clipPath
       id="40e6be1c96">
      <path
         d="M 45 0 L 330 0 C 354.851562 0 375 20.148438 375 45 L 375 330 C 375 354.851562 354.851562 375 330 375 L 45 375 C 20.148438 375 0 354.851562 0 330 L 0 45 C 0 20.148438 20.148438 0 45 0 Z M 45 0 "
         clip-rule="nonzero"
         id="path2" />
    </clipPath>
    <clipPath
       id="ec2ed9ee1a">
      <path
         d="M 0 0 L 375 0 L 375 375 L 0 375 Z M 0 0 "
         clip-rule="nonzero"
         id="path5" />
    </clipPath>
    <clipPath
       id="b102d04c6b">
      <path
         d="M 45 0 L 330 0 C 354.851562 0 375 20.148438 375 45 L 375 330 C 375 354.851562 354.851562 375 330 375 L 45 375 C 20.148438 375 0 354.851562 0 330 L 0 45 C 0 20.148438 20.148438 0 45 0 Z M 45 0 "
         clip-rule="nonzero"
         id="path8" />
    </clipPath>
    <clipPath
       id="30db1d8bd8">
      <rect
         x="0"
         width="375"
         y="0"
         height="375"
         id="rect11" />
    </clipPath>
    <clipPath
       id="739f715294">
      <path
         d="M 88 106 L 287.34375 106 L 287.34375 270 L 88 270 Z M 88 106 "
         clip-rule="nonzero"
         id="path14" />
    </clipPath>
  </defs>
  <g
     clip-path="url(#40e6be1c96)"
     id="g33">
    <g
       transform="matrix(1, 0, 0, 1, 0, 0)"
       id="g31">
      <g
         clip-path="url(#30db1d8bd8)"
         id="g29">
        <g
           clip-path="url(#ec2ed9ee1a)"
           id="g27">
          <g
             clip-path="url(#b102d04c6b)"
             id="g25">
            <rect
               x="-82.5"
               width="540"
               fill="#417dbc"
               height="539.999987"
               y="-82.499998"
               fill-opacity="1"
               id="rect23" />
          </g>
        </g>
      </g>
    </g>
  </g>
  <g
     clip-path="url(#739f715294)"
     id="g37">
    <path
       fill="#fedc07"
       d="M 109.347656 175.316406 C 108.375 175.089844 107.421875 174.972656 106.484375 174.972656 L 106.484375 174.984375 C 105.582031 174.984375 104.691406 175.089844 103.808594 175.3125 C 103.570312 188.777344 103.191406 202.175781 102.726562 215.542969 C 102.238281 229.636719 101.664062 243.601562 101.066406 257.539062 C 101.082031 258.355469 101.164062 259.097656 101.472656 259.847656 C 102.292969 261.828125 104.296875 263.125 106.40625 263.125 C 109.359375 263.125 111.75 260.710938 111.75 257.792969 C 111.75 257.730469 111.75 257.664062 111.753906 257.601562 C 111.515625 249.378906 111.277344 241.160156 111.039062 232.9375 C 110.484375 213.730469 109.929688 194.523438 109.347656 175.316406 Z M 187.632812 123.625 C 224.75 123.625 254.839844 153.714844 254.839844 190.832031 C 254.839844 227.949219 224.75 258.039062 187.632812 258.039062 C 150.515625 258.039062 120.425781 227.949219 120.425781 190.832031 C 120.425781 153.714844 150.515625 123.625 187.632812 123.625 Z M 230.734375 147.726562 C 206.929688 123.921875 168.332031 123.921875 144.527344 147.726562 C 120.722656 171.53125 120.722656 210.128906 144.527344 233.933594 C 168.332031 257.738281 206.929688 257.738281 230.734375 233.933594 C 254.539062 210.128906 254.539062 171.53125 230.734375 147.726562 Z M 187.632812 147.402344 C 211.613281 147.402344 231.058594 166.847656 231.058594 190.832031 C 231.058594 214.8125 211.613281 234.257812 187.632812 234.257812 C 163.648438 234.257812 144.203125 214.8125 144.203125 190.832031 C 144.203125 166.847656 163.648438 147.402344 187.632812 147.402344 Z M 213.917969 164.542969 C 199.40625 150.027344 175.859375 150.027344 161.34375 164.542969 C 146.828125 179.054688 146.828125 202.605469 161.34375 217.117188 C 175.859375 231.632812 199.40625 231.632812 213.917969 217.117188 C 228.433594 202.605469 228.433594 179.054688 213.917969 164.542969 Z M 267.488281 173.902344 L 267.417969 161.304688 C 267.410156 159.875 268.375 158.664062 269.691406 158.296875 L 269.6875 158.289062 C 272.972656 157.363281 275.753906 155.171875 277.707031 151.945312 C 279.691406 148.664062 280.839844 144.308594 280.839844 139.085938 C 280.839844 132.640625 278.800781 125.695312 275.605469 120.496094 C 272.914062 116.117188 269.507812 113.101562 266.082031 113.101562 C 256.242188 113.101562 247.40625 138.671875 255.4375 151.945312 C 257.390625 155.171875 260.171875 157.363281 263.457031 158.289062 C 264.898438 158.695312 265.820312 160.050781 265.726562 161.488281 L 265.746094 173.886719 C 266.023438 173.871094 266.296875 173.867188 266.574219 173.867188 L 266.574219 173.878906 C 266.878906 173.878906 267.183594 173.886719 267.488281 173.902344 Z M 259.523438 175.476562 L 259.503906 163.5 C 255.664062 161.878906 252.433594 159.039062 250.089844 155.167969 C 247.53125 150.9375 246.054688 145.484375 246.054688 139.085938 C 246.054688 131.464844 248.226562 123.210938 251.789062 117.074219 C 259.867188 103.164062 272.617188 103.695312 280.929688 117.226562 C 284.6875 123.34375 287.089844 131.511719 287.089844 139.085938 C 287.089844 145.484375 285.613281 150.9375 283.054688 155.167969 C 280.714844 159.035156 277.492188 161.871094 273.65625 163.496094 L 273.726562 175.375 C 274.625 175.898438 275.242188 176.863281 275.273438 177.980469 C 275.847656 196.851562 276.394531 215.726562 276.9375 234.597656 C 277.164062 242.363281 277.386719 250.132812 277.613281 257.898438 C 277.636719 258.203125 277.628906 258.421875 277.597656 258.722656 C 277.546875 260.015625 277.269531 261.296875 276.769531 262.5 C 273.738281 269.820312 264.242188 271.722656 258.636719 266.117188 C 257.585938 265.066406 256.78125 263.832031 256.230469 262.5 C 255.71875 261.265625 255.441406 259.949219 255.398438 258.625 C 255.378906 258.460938 255.371094 258.296875 255.378906 258.132812 C 255.953125 244.722656 256.503906 231.351562 256.964844 218.109375 C 257.425781 204.785156 257.800781 191.488281 258.019531 178.242188 C 257.984375 177.136719 258.542969 176.066406 259.523438 175.476562 Z M 269.117188 180.398438 C 268.253906 180.203125 267.40625 180.105469 266.574219 180.105469 L 266.574219 180.117188 C 265.777344 180.117188 264.988281 180.207031 264.210938 180.390625 C 263.984375 193.082031 263.628906 205.710938 263.191406 218.304688 C 262.730469 231.636719 262.183594 244.832031 261.621094 258.007812 L 261.621094 258.46875 C 261.648438 259.03125 261.769531 259.59375 261.992188 260.132812 C 262.742188 261.9375 264.574219 263.125 266.5 263.125 C 269.199219 263.125 271.382812 260.917969 271.382812 258.253906 C 271.382812 258.191406 271.386719 258.132812 271.386719 258.070312 C 271.160156 250.304688 270.9375 242.535156 270.714844 234.769531 C 270.1875 216.644531 269.664062 198.519531 269.117188 180.398438 Z M 99.496094 170.21875 L 99.394531 156.460938 C 96.207031 155.253906 93.511719 153.148438 91.558594 150.433594 C 89.175781 147.132812 87.910156 142.949219 88.222656 138.441406 L 88.222656 138.414062 L 90.453125 109.746094 C 90.582031 108.027344 92.082031 106.734375 93.800781 106.863281 C 95.519531 106.992188 96.808594 108.488281 96.679688 110.210938 L 95.015625 131.582031 C 95.035156 131.691406 95.050781 131.804688 95.058594 131.921875 C 95.144531 133.027344 95.734375 133.738281 96.640625 133.738281 C 97.609375 133.738281 98.191406 132.894531 98.292969 131.621094 C 98.304688 131.46875 98.328125 131.320312 98.359375 131.179688 L 98.558594 109.953125 C 98.570312 108.234375 99.976562 106.851562 101.695312 106.863281 C 103.414062 106.878906 104.796875 108.28125 104.785156 110.003906 L 104.582031 131.316406 C 104.570312 132.808594 105.386719 133.722656 106.554688 133.738281 C 107.613281 133.75 108.253906 133.019531 108.25 131.621094 L 108.15625 109.988281 C 108.148438 108.269531 109.539062 106.871094 111.257812 106.863281 C 112.976562 106.855469 114.375 108.246094 114.382812 109.964844 L 114.476562 131.386719 C 114.519531 131.558594 114.550781 131.738281 114.5625 131.921875 C 114.648438 133.027344 115.238281 133.738281 116.140625 133.738281 C 117.113281 133.738281 117.691406 132.894531 117.792969 131.621094 C 117.808594 131.453125 117.832031 131.292969 117.871094 131.136719 L 116.515625 110.171875 C 116.410156 108.453125 117.714844 106.972656 119.433594 106.863281 C 121.15625 106.757812 122.636719 108.0625 122.742188 109.78125 L 124.59375 138.453125 C 124.886719 142.96875 123.605469 147.152344 121.214844 150.449219 C 119.253906 153.148438 116.558594 155.25 113.367188 156.457031 L 113.359375 170.035156 L 113.382812 170.042969 C 114.585938 170.445312 115.46875 171.566406 115.503906 172.910156 C 116.113281 192.863281 116.6875 212.8125 117.265625 232.765625 C 117.503906 240.988281 117.742188 249.214844 117.980469 257.4375 C 118.003906 257.75 117.996094 257.957031 117.964844 258.269531 C 117.910156 259.617188 117.621094 260.957031 117.101562 262.21875 C 113.941406 269.84375 104.054688 271.816406 98.21875 265.980469 C 97.121094 264.886719 96.285156 263.601562 95.710938 262.21875 C 95.148438 260.851562 94.851562 259.414062 94.828125 257.988281 C 94.820312 257.886719 94.820312 257.777344 94.824219 257.671875 C 95.429688 243.492188 96.015625 229.355469 96.5 215.347656 C 96.988281 201.253906 97.386719 187.191406 97.617188 173.175781 C 97.609375 171.925781 98.269531 170.75 99.496094 170.21875 Z M 94.417969 139.640625 C 94.359375 145.121094 97.765625 149.90625 103.152344 151.074219 L 103.148438 151.085938 C 104.546875 151.386719 105.601562 152.625 105.605469 154.113281 L 105.710938 168.75 C 105.96875 168.738281 106.226562 168.734375 106.484375 168.734375 L 106.484375 168.746094 C 106.699219 168.746094 106.917969 168.75 107.136719 168.757812 L 107.144531 154.367188 C 107.023438 152.835938 108.050781 151.410156 109.597656 151.074219 C 114.972656 149.914062 118.421875 145.105469 118.398438 139.636719 C 116.027344 140.347656 113.382812 139.871094 111.417969 138.363281 C 108.519531 140.566406 104.378906 140.457031 101.515625 138.242188 C 99.535156 139.855469 96.855469 140.367188 94.417969 139.640625 "
       fill-opacity="1"
       fill-rule="nonzero"
       id="path35" />
  </g>
</svg>
