<?xml version="1.0" encoding="UTF-8" standalone="no"?>
<svg
   width="500"
   zoomAndPan="magnify"
   viewBox="0 0 375 374.999991"
   height="500"
   preserveAspectRatio="xMidYMid meet"
   version="1.0"
   id="svg39"
   sodipodi:docname="handshare.svg"
   inkscape:version="1.2.2 (b0a8486541, 2022-12-01)"
   xmlns:inkscape="http://www.inkscape.org/namespaces/inkscape"
   xmlns:sodipodi="http://sodipodi.sourceforge.net/DTD/sodipodi-0.dtd"
   xmlns="http://www.w3.org/2000/svg"
   xmlns:svg="http://www.w3.org/2000/svg">
  <sodipodi:namedview
     id="namedview41"
     pagecolor="#ffffff"
     bordercolor="#000000"
     borderopacity="0.25"
     inkscape:showpageshadow="2"
     inkscape:pageopacity="0.0"
     inkscape:pagecheckerboard="0"
     inkscape:deskcolor="#d1d1d1"
     showgrid="false"
     inkscape:zoom="1.712"
     inkscape:cx="158.29439"
     inkscape:cy="250"
     inkscape:window-width="1920"
     inkscape:window-height="1002"
     inkscape:window-x="1920"
     inkscape:window-y="0"
     inkscape:window-maximized="1"
     inkscape:current-layer="svg39" />
  <defs
     id="defs17">
    <clipPath
       id="1645442151">
      <path
         d="M 45 0 L 330 0 C 354.851562 0 375 20.148438 375 45 L 375 330 C 375 354.851562 354.851562 375 330 375 L 45 375 C 20.148438 375 0 354.851562 0 330 L 0 45 C 0 20.148438 20.148438 0 45 0 Z M 45 0 "
         clip-rule="nonzero"
         id="path2" />
    </clipPath>
    <clipPath
       id="b7592f98df">
      <path
         d="M 0 0 L 375 0 L 375 375 L 0 375 Z M 0 0 "
         clip-rule="nonzero"
         id="path5" />
    </clipPath>
    <clipPath
       id="235f25b4be">
      <path
         d="M 45 0 L 330 0 C 354.851562 0 375 20.148438 375 45 L 375 330 C 375 354.851562 354.851562 375 330 375 L 45 375 C 20.148438 375 0 354.851562 0 330 L 0 45 C 0 20.148438 20.148438 0 45 0 Z M 45 0 "
         clip-rule="nonzero"
         id="path8" />
    </clipPath>
    <clipPath
       id="e183ecdea8">
      <rect
         x="0"
         width="375"
         y="0"
         height="375"
         id="rect11" />
    </clipPath>
    <clipPath
       id="35fe73c67e">
      <path
         d="M 73.953125 108.726562 L 301.203125 108.726562 L 301.203125 266.226562 L 73.953125 266.226562 Z M 73.953125 108.726562 "
         clip-rule="nonzero"
         id="path14" />
    </clipPath>
  </defs>
  <g
     clip-path="url(#1645442151)"
     id="g33">
    <g
       transform="matrix(1, 0, 0, 1, 0, 0)"
       id="g31">
      <g
         clip-path="url(#e183ecdea8)"
         id="g29">
        <g
           clip-path="url(#b7592f98df)"
           id="g27">
          <g
             clip-path="url(#235f25b4be)"
             id="g25">
            <rect
               x="-82.5"
               width="540"
               fill="#417dbc"
               height="539.999987"
               y="-82.499998"
               fill-opacity="1"
               id="rect23" />
          </g>
        </g>
      </g>
    </g>
  </g>
  <g
     clip-path="url(#35fe73c67e)"
     id="g37">
    <path
       fill="#fedc07"
       d="M 164.152344 266.257812 C 158.460938 266.257812 153.230469 262.011719 151.4375 255.925781 C 151.367188 255.660156 151.335938 255.386719 151.339844 255.113281 C 151.339844 254.457031 151.339844 254.304688 150.679688 254.304688 L 150.300781 254.304688 C 149.449219 254.402344 148.597656 254.453125 147.742188 254.457031 C 139.824219 254.457031 134.40625 250.019531 132.875 242.292969 C 132.519531 240.503906 131.953125 240.414062 131.058594 240.414062 L 129.394531 240.460938 C 121.21875 240.460938 115.648438 235.578125 114.503906 227.394531 C 114.316406 226.0625 113.996094 226.0625 112.664062 226.0625 C 107.425781 226.015625 102.945312 223.792969 100.363281 220.007812 C 97.785156 216.222656 97.421875 211.21875 99.304688 206.382812 C 100.109375 204.332031 99.570312 203.761719 97.949219 202.777344 C 92.105469 199.226562 86.234375 195.519531 80.539062 191.929688 L 77.164062 189.804688 L 76.597656 189.464844 C 75.628906 188.886719 74.523438 188.214844 74.113281 186.929688 C 74.011719 186.652344 73.953125 186.371094 73.941406 186.078125 C 73.933594 185.785156 73.964844 185.5 74.046875 185.21875 C 74.125 184.9375 74.25 184.675781 74.414062 184.433594 C 74.578125 184.191406 74.773438 183.980469 75.007812 183.800781 C 75.523438 183.363281 76.117188 183.140625 76.792969 183.128906 C 77.429688 183.144531 78.011719 183.324219 78.542969 183.671875 C 79.296875 184.132812 80.054688 184.558594 80.8125 184.988281 C 82.386719 185.832031 83.886719 186.792969 85.308594 187.875 C 85.734375 188.285156 86.238281 188.539062 86.824219 188.632812 C 87.398438 188.632812 87.808594 188.011719 88.425781 186.996094 L 88.59375 186.738281 C 96.496094 174.007812 104.460938 161.292969 112.484375 148.601562 C 116.148438 142.796875 119.46875 137.5 123.011719 132.246094 C 123.472656 131.558594 123.65625 131.101562 123.582031 130.800781 C 123.503906 130.496094 123.132812 130.164062 122.339844 129.71875 C 116.917969 126.691406 111.476562 123.503906 106.214844 120.414062 L 103.324219 118.726562 C 102.316406 118.203125 101.410156 117.539062 100.605469 116.734375 C 100.371094 116.464844 100.1875 116.160156 100.058594 115.820312 C 99.929688 115.484375 99.863281 115.136719 99.859375 114.773438 C 99.859375 114.414062 99.917969 114.0625 100.039062 113.722656 C 100.160156 113.382812 100.335938 113.074219 100.570312 112.800781 C 100.789062 112.460938 101.074219 112.195312 101.425781 112 C 101.773438 111.800781 102.152344 111.699219 102.550781 111.6875 C 103.457031 111.777344 104.285156 112.085938 105.027344 112.609375 L 113.703125 117.628906 C 118.8125 120.582031 123.925781 123.53125 129.039062 126.476562 C 130.136719 127.105469 131.261719 127.671875 132.398438 128.234375 C 133.085938 128.574219 133.769531 128.914062 134.449219 129.269531 C 135.832031 130.027344 137.3125 130.410156 138.886719 130.421875 C 140.695312 130.382812 142.398438 129.929688 143.988281 129.066406 C 145.175781 128.46875 146.351562 127.839844 147.53125 127.210938 C 150.878906 125.304688 154.359375 123.6875 157.976562 122.359375 C 160.914062 121.3125 163.941406 120.757812 167.058594 120.703125 C 169.742188 120.679688 172.320312 121.183594 174.796875 122.214844 C 175.085938 122.34375 175.394531 122.414062 175.710938 122.421875 C 176.371094 122.351562 176.960938 122.113281 177.484375 121.707031 C 184.546875 117.382812 191.527344 115.226562 198.421875 115.238281 C 204.808594 115.238281 211.289062 117.097656 217.617188 120.761719 C 220.820312 122.601562 224.050781 124.394531 227.277344 126.199219 C 229.707031 127.542969 232.144531 128.898438 234.558594 130.269531 C 235.652344 130.949219 236.84375 131.3125 238.128906 131.359375 C 239.816406 131.277344 241.277344 130.65625 242.511719 129.503906 C 247.941406 125.03125 253.578125 120.625 259.039062 116.371094 C 261.449219 114.484375 263.863281 112.59375 266.273438 110.695312 L 266.828125 110.25 C 267.742188 109.492188 268.6875 108.734375 269.792969 108.734375 C 270.261719 108.761719 270.699219 108.894531 271.105469 109.125 C 271.511719 109.355469 271.847656 109.664062 272.109375 110.050781 C 272.769531 110.71875 273.078125 111.519531 273.035156 112.457031 C 272.890625 113.828125 271.632812 114.796875 270.535156 115.652344 C 264.714844 120.195312 257.597656 125.707031 250.648438 130.84375 C 248.8125 132.199219 248.449219 132.957031 249.816406 134.957031 C 261.746094 152.492188 273.28125 169.773438 283.925781 185.824219 C 284.539062 186.746094 284.976562 187.125 285.441406 187.125 C 285.984375 187.050781 286.464844 186.832031 286.878906 186.464844 C 289.148438 184.816406 291.570312 183.300781 293.910156 181.832031 L 295.339844 180.933594 C 296.140625 180.367188 297.03125 180.050781 298.011719 179.992188 C 298.511719 180.003906 298.972656 180.132812 299.402344 180.386719 C 299.832031 180.636719 300.171875 180.972656 300.425781 181.402344 C 300.929688 182.039062 301.117188 182.757812 300.996094 183.558594 C 300.769531 184.695312 299.6875 185.472656 298.722656 186.109375 C 288.210938 192.878906 278.75 198.976562 269.378906 205.683594 C 267.863281 206.746094 267.332031 207.378906 267.757812 209.46875 C 268.007812 210.527344 268.140625 211.597656 268.148438 212.679688 C 268.160156 213.765625 268.046875 214.839844 267.8125 215.898438 C 267.578125 216.957031 267.230469 217.980469 266.765625 218.960938 C 266.300781 219.941406 265.734375 220.859375 265.0625 221.710938 C 262.324219 225.0625 258.183594 226.910156 253.390625 226.910156 L 252.792969 226.910156 L 251.6875 226.863281 C 251.097656 226.863281 250.628906 226.863281 250.527344 228.378906 C 249.992188 236.789062 244.230469 242.433594 236.191406 242.433594 C 234.25 242.425781 232.355469 242.121094 230.507812 241.527344 C 228.992188 250.171875 223.808594 255.152344 216.179688 255.152344 C 213.152344 255.085938 210.246094 254.46875 207.457031 253.296875 C 205.824219 261.085938 200.261719 266.089844 193.160156 266.089844 C 189.882812 266.027344 186.867188 265.105469 184.113281 263.328125 C 181.804688 261.894531 179.730469 260.714844 177.628906 260.714844 C 175.839844 260.714844 173.992188 261.578125 171.820312 263.425781 C 170.753906 264.34375 169.5625 265.046875 168.242188 265.53125 C 166.921875 266.019531 165.558594 266.261719 164.152344 266.257812 Z M 168.492188 234.289062 C 173.136719 234.851562 176.816406 236.78125 179.089844 239.898438 C 181.359375 243.019531 182.117188 247.242188 181.054688 251.917969 C 180.984375 252.175781 180.898438 252.429688 180.796875 252.675781 C 180.496094 253.433594 180.398438 253.789062 181.0625 254.226562 C 181.730469 254.667969 182.578125 255.242188 183.28125 255.742188 C 186.007812 257.671875 188.582031 259.488281 191.902344 259.972656 C 192.195312 260.046875 192.496094 260.097656 192.796875 260.125 C 196.148438 260.125 199.933594 257.703125 201.054688 254.828125 C 202.273438 251.714844 201.191406 248.898438 197.851562 246.5 C 194.992188 244.410156 192.125 242.328125 189.253906 240.246094 L 179.171875 232.875 C 178.148438 232.257812 177.507812 231.367188 177.242188 230.203125 C 177.136719 229.34375 177.367188 228.585938 177.9375 227.933594 C 178.183594 227.566406 178.496094 227.273438 178.882812 227.0625 C 179.269531 226.851562 179.683594 226.738281 180.125 226.726562 C 181.113281 226.796875 181.972656 227.164062 182.707031 227.832031 C 183.160156 228.195312 183.652344 228.53125 184.128906 228.863281 L 185.03125 229.492188 L 190.207031 233.277344 C 196.355469 237.742188 202.496094 242.214844 208.632812 246.695312 C 210.199219 247.945312 211.953125 248.832031 213.886719 249.359375 C 214.398438 249.480469 214.917969 249.539062 215.445312 249.535156 C 216.3125 249.496094 217.160156 249.339844 217.988281 249.070312 C 218.8125 248.796875 219.585938 248.417969 220.308594 247.933594 C 221.03125 247.449219 221.671875 246.875 222.238281 246.210938 C 222.800781 245.546875 223.261719 244.824219 223.628906 244.03125 C 225.261719 240.511719 224.527344 238.257812 220.828125 235.386719 C 212.167969 228.703125 203.523438 221.996094 194.894531 215.277344 C 193.710938 214.359375 192.554688 213.34375 192.425781 212.011719 C 192.390625 211.046875 192.710938 210.222656 193.394531 209.539062 C 193.933594 208.800781 194.65625 208.410156 195.566406 208.355469 C 196.632812 208.355469 197.519531 209.113281 198.375 209.871094 C 198.5625 210.03125 198.746094 210.1875 198.933594 210.332031 L 205.234375 215.351562 C 209.773438 219 214.378906 222.648438 218.988281 226.25 L 221.023438 227.855469 C 224.339844 230.476562 227.773438 233.15625 231.371094 235.480469 C 232.703125 236.320312 234.15625 236.734375 235.730469 236.726562 C 236.519531 236.714844 237.296875 236.609375 238.0625 236.40625 C 238.828125 236.203125 239.554688 235.910156 240.246094 235.53125 C 240.9375 235.148438 241.574219 234.6875 242.152344 234.148438 C 242.730469 233.609375 243.234375 233.007812 243.664062 232.34375 C 245.835938 228.921875 244.691406 224.84375 240.636719 221.710938 C 235.699219 217.863281 221.917969 207.0625 221.917969 207.0625 C 217.375 203.496094 212.832031 199.941406 208.292969 196.34375 C 207.335938 195.585938 206.308594 194.777344 206.195312 193.625 C 206.164062 192.8125 206.429688 192.109375 206.996094 191.523438 C 207.289062 191.136719 207.652344 190.835938 208.082031 190.613281 C 208.515625 190.394531 208.972656 190.277344 209.457031 190.265625 C 210.441406 190.324219 211.332031 190.648438 212.128906 191.234375 C 212.507812 191.492188 212.871094 191.769531 213.21875 192.066406 L 223.390625 200.128906 C 231.296875 206.402344 239.460938 212.882812 247.570312 219.152344 C 248.410156 219.855469 249.34375 220.402344 250.367188 220.789062 C 251.394531 221.179688 252.453125 221.390625 253.550781 221.421875 C 256.136719 221.421875 258.558594 220.097656 260.542969 217.636719 C 263.570312 213.800781 262.730469 209.484375 258.203125 205.796875 C 233.445312 185.625 213.179688 169.691406 194.46875 155.664062 C 192.59375 154.257812 191.441406 153.707031 190.449219 153.707031 C 189.222656 153.707031 187.953125 154.558594 186.179688 156.019531 C 184.03125 157.800781 181.933594 159.738281 179.90625 161.609375 C 176.015625 165.203125 171.988281 168.917969 167.324219 171.765625 C 164.546875 173.511719 161.519531 174.40625 158.242188 174.453125 C 156.109375 174.445312 154.070312 174.011719 152.121094 173.148438 C 150.175781 172.289062 148.484375 171.070312 147.046875 169.496094 C 141.914062 163.976562 142.089844 158.019531 147.597656 150.746094 C 153.890625 142.417969 161.269531 135.394531 168.300781 129.027344 C 168.539062 128.816406 168.789062 128.625 169.058594 128.453125 C 169.6875 128.042969 170.117188 127.742188 170.214844 127.1875 C 169.15625 126.976562 168.082031 126.867188 167 126.863281 C 164.429688 126.914062 161.957031 127.429688 159.582031 128.414062 C 155.554688 129.933594 151.699219 131.800781 148.015625 134.015625 C 145.355469 135.734375 142.445312 136.617188 139.28125 136.667969 C 136.507812 136.613281 133.910156 135.917969 131.484375 134.578125 C 130.960938 134.257812 130.394531 134.074219 129.789062 134.023438 C 129.03125 134.023438 128.546875 134.601562 127.78125 135.8125 C 120.914062 146.734375 114.019531 157.644531 107.101562 168.535156 L 97.375 183.898438 C 96.859375 184.710938 96.214844 185.550781 95.566406 186.390625 C 94.089844 188.28125 92.574219 190.25 92.796875 191.796875 C 93.015625 193.339844 94.9375 194.347656 96.964844 195.351562 C 98.15625 195.886719 99.277344 196.542969 100.328125 197.320312 C 101.039062 198.023438 101.890625 198.421875 102.886719 198.523438 C 103.757812 198.523438 104.664062 197.988281 105.828125 196.777344 C 107.121094 195.390625 108.636719 194.3125 110.371094 193.546875 C 112.105469 192.78125 113.917969 192.386719 115.8125 192.363281 C 117.128906 192.371094 118.414062 192.574219 119.667969 192.964844 C 120.921875 193.359375 122.089844 193.925781 123.175781 194.667969 C 124.257812 195.410156 125.210938 196.292969 126.035156 197.320312 C 126.855469 198.34375 127.507812 199.46875 127.992188 200.6875 C 128.363281 201.613281 128.683594 202.558594 128.949219 203.519531 L 129.175781 204.277344 C 131.816406 203.054688 134.589844 202.410156 137.5 202.339844 C 144.714844 202.339844 149.558594 207.273438 150.785156 215.875 C 150.929688 216.851562 151.097656 216.851562 151.238281 216.851562 C 151.582031 216.820312 151.917969 216.753906 152.246094 216.652344 C 153.238281 216.398438 154.25 216.273438 155.273438 216.273438 C 156.511719 216.277344 157.726562 216.453125 158.914062 216.804688 C 160.664062 217.300781 162.265625 218.101562 163.710938 219.203125 C 165.15625 220.308594 166.351562 221.636719 167.292969 223.195312 C 169.332031 226.394531 169.71875 230.027344 168.492188 234.289062 Z M 168.257812 240.347656 C 167.367188 240.339844 166.519531 240.519531 165.707031 240.886719 C 164.898438 241.25 164.199219 241.765625 163.617188 242.433594 C 161.425781 244.785156 159.558594 247.367188 158.015625 250.1875 C 157.738281 250.675781 157.53125 251.191406 157.390625 251.734375 C 157.253906 252.277344 157.1875 252.828125 157.195312 253.390625 C 157.203125 253.949219 157.285156 254.5 157.441406 255.039062 C 157.59375 255.578125 157.816406 256.085938 158.105469 256.566406 C 158.410156 257.078125 158.773438 257.539062 159.195312 257.953125 C 159.621094 258.367188 160.089844 258.71875 160.605469 259.007812 C 161.121094 259.300781 161.664062 259.519531 162.238281 259.671875 C 162.8125 259.820312 163.394531 259.894531 163.988281 259.890625 C 166.582031 259.890625 169.703125 258.226562 172.160156 255.539062 C 174.621094 252.851562 175.871094 249.859375 175.652344 247.386719 C 175.355469 244.039062 173.851562 241.914062 171.050781 240.875 C 170.148438 240.542969 169.21875 240.371094 168.257812 240.359375 Z M 154.628906 222.261719 C 153.828125 222.25 153.050781 222.386719 152.296875 222.664062 C 151.542969 222.941406 150.867188 223.34375 150.261719 223.875 C 145.914062 227.816406 142.320312 232.355469 139.492188 237.5 C 137.667969 240.753906 138.910156 244.734375 142.519531 247.195312 C 143.949219 248.277344 145.558594 248.863281 147.347656 248.953125 C 149.195312 248.953125 150.921875 248.042969 152.457031 246.257812 C 155.484375 242.769531 158.265625 239.015625 160.988281 235.371094 L 161.929688 234.117188 C 163.238281 232.367188 164.402344 229.644531 162.527344 226.546875 C 160.738281 223.65625 158.429688 222.246094 155.457031 222.246094 L 155.191406 222.246094 Z M 136.78125 208.046875 C 135.5625 208.085938 134.40625 208.371094 133.308594 208.90625 C 132.210938 209.441406 131.273438 210.175781 130.492188 211.113281 C 128.441406 213.382812 126.554688 215.902344 124.722656 218.332031 C 124.074219 219.203125 123.414062 220.082031 122.746094 220.945312 C 119.539062 225.109375 119.628906 229.535156 122.984375 232.496094 C 123.765625 233.222656 124.65625 233.789062 125.648438 234.1875 C 126.640625 234.585938 127.671875 234.792969 128.742188 234.8125 C 130.035156 234.773438 131.261719 234.472656 132.421875 233.90625 C 133.582031 233.335938 134.574219 232.554688 135.398438 231.558594 C 137.78125 228.871094 139.9375 225.910156 142.089844 223.050781 L 143.738281 220.832031 C 144.1875 220.242188 144.511719 219.585938 144.710938 218.871094 C 144.90625 218.15625 144.964844 217.429688 144.882812 216.691406 C 145.175781 213.269531 143.578125 210.734375 140 208.839844 C 138.992188 208.308594 137.921875 208.042969 136.78125 208.046875 Z M 115.511719 198.273438 C 114.105469 198.28125 112.84375 198.710938 111.726562 199.5625 C 107.632812 202.589844 105.082031 206.289062 104.15625 210.589844 C 104.054688 211.15625 104.011719 211.730469 104.027344 212.308594 C 104.046875 212.886719 104.125 213.453125 104.265625 214.015625 C 104.402344 214.574219 104.601562 215.113281 104.855469 215.632812 C 105.109375 216.148438 105.417969 216.636719 105.773438 217.089844 C 106.132812 217.542969 106.535156 217.953125 106.980469 218.320312 C 107.425781 218.683594 107.90625 219 108.417969 219.265625 C 108.933594 219.53125 109.46875 219.738281 110.023438 219.886719 C 110.582031 220.039062 111.148438 220.128906 111.726562 220.15625 C 112.414062 220.160156 113.085938 220.050781 113.738281 219.839844 C 117.191406 218.710938 123.15625 210.234375 123.15625 206.496094 C 123.15625 203.179688 121.792969 200.734375 119.039062 199.226562 C 117.945312 198.605469 116.769531 198.289062 115.511719 198.273438 Z M 190.375 147.558594 C 192.8125 147.558594 195.414062 148.703125 198.820312 151.28125 C 217.214844 165.203125 236.667969 180.554688 261.972656 201.050781 C 262.46875 201.570312 263.074219 201.878906 263.785156 201.976562 C 264.363281 201.925781 264.867188 201.707031 265.296875 201.316406 C 267.925781 199.34375 270.664062 197.417969 273.304688 195.566406 L 275.863281 193.769531 C 280.210938 190.742188 280.210938 190.742188 277.25 186.285156 C 266.492188 170.253906 255.722656 154.21875 244.941406 138.179688 C 244.808594 137.972656 244.683594 137.757812 244.570312 137.535156 C 244.195312 136.824219 243.929688 136.394531 243.472656 136.394531 C 243.179688 136.417969 242.910156 136.511719 242.664062 136.671875 C 241.320312 137.496094 239.863281 137.910156 238.289062 137.914062 C 235.800781 137.914062 233.4375 136.765625 231.652344 135.773438 L 224.226562 131.59375 C 220.742188 129.640625 217.269531 127.679688 213.773438 125.734375 C 208.789062 122.976562 203.449219 121.519531 197.753906 121.359375 C 194.929688 121.519531 192.167969 122.019531 189.472656 122.867188 C 186.773438 123.714844 184.21875 124.878906 181.8125 126.363281 C 175.703125 130.050781 170.6875 135.167969 165.824219 140.109375 C 164.976562 140.972656 164.128906 141.84375 163.273438 142.699219 L 161.003906 144.917969 C 157.289062 148.574219 153.433594 152.351562 150.738281 156.9375 C 148.402344 160.933594 149.226562 164.121094 153.253906 166.695312 C 154.816406 167.765625 156.542969 168.320312 158.4375 168.359375 C 160.867188 168.359375 163.417969 167.269531 166.25 165.027344 C 171.269531 161.054688 176.167969 156.703125 180.898438 152.554688 L 181.328125 152.183594 C 185.058594 148.914062 187.671875 147.589844 190.375 147.589844 Z M 190.375 147.558594 "
       fill-opacity="1"
       fill-rule="nonzero"
       id="path35" />
  </g>
</svg>
