<?xml version="1.0" encoding="UTF-8" standalone="no"?>
<svg
   width="500"
   zoomAndPan="magnify"
   viewBox="0 0 375 374.999991"
   height="500"
   preserveAspectRatio="xMidYMid meet"
   version="1.0"
   id="svg87"
   sodipodi:docname="heart.svg"
   inkscape:version="1.2.2 (b0a8486541, 2022-12-01)"
   xmlns:inkscape="http://www.inkscape.org/namespaces/inkscape"
   xmlns:sodipodi="http://sodipodi.sourceforge.net/DTD/sodipodi-0.dtd"
   xmlns="http://www.w3.org/2000/svg"
   xmlns:svg="http://www.w3.org/2000/svg">
  <sodipodi:namedview
     id="namedview89"
     pagecolor="#ffffff"
     bordercolor="#000000"
     borderopacity="0.25"
     inkscape:showpageshadow="2"
     inkscape:pageopacity="0.0"
     inkscape:pagecheckerboard="0"
     inkscape:deskcolor="#d1d1d1"
     showgrid="false"
     inkscape:zoom="0.428"
     inkscape:cx="742.99065"
     inkscape:cy="203.27103"
     inkscape:window-width="1920"
     inkscape:window-height="1002"
     inkscape:window-x="1920"
     inkscape:window-y="0"
     inkscape:window-maximized="1"
     inkscape:current-layer="svg87" />
  <defs
     id="defs35">
    <clipPath
       id="01a549b0d0">
      <path
         d="M 45 0 L 330 0 C 354.851562 0 375 20.148438 375 45 L 375 330 C 375 354.851562 354.851562 375 330 375 L 45 375 C 20.148438 375 0 354.851562 0 330 L 0 45 C 0 20.148438 20.148438 0 45 0 Z M 45 0 "
         clip-rule="nonzero"
         id="path2" />
    </clipPath>
    <clipPath
       id="ad8ab067f6">
      <path
         d="M 0 0 L 375 0 L 375 375 L 0 375 Z M 0 0 "
         clip-rule="nonzero"
         id="path5" />
    </clipPath>
    <clipPath
       id="4ac2956cd9">
      <path
         d="M 45 0 L 330 0 C 354.851562 0 375 20.148438 375 45 L 375 330 C 375 354.851562 354.851562 375 330 375 L 45 375 C 20.148438 375 0 354.851562 0 330 L 0 45 C 0 20.148438 20.148438 0 45 0 Z M 45 0 "
         clip-rule="nonzero"
         id="path8" />
    </clipPath>
    <clipPath
       id="29adc4607d">
      <rect
         x="0"
         width="375"
         y="0"
         height="375"
         id="rect11" />
    </clipPath>
    <clipPath
       id="fe5cf3eaad">
      <path
         d="M 125 105.238281 L 249 105.238281 L 249 213 L 125 213 Z M 125 105.238281 "
         clip-rule="nonzero"
         id="path14" />
    </clipPath>
    <clipPath
       id="be58336441">
      <path
         d="M 125 105.238281 L 249 105.238281 L 249 213 L 125 213 Z M 125 105.238281 "
         clip-rule="nonzero"
         id="path17" />
    </clipPath>
    <clipPath
       id="c582709a52">
      <path
         d="M 191 190 L 263 190 L 263 269.488281 L 191 269.488281 Z M 191 190 "
         clip-rule="nonzero"
         id="path20" />
    </clipPath>
    <clipPath
       id="cbde6c5bfc">
      <path
         d="M 194 154 L 287.738281 154 L 287.738281 269.488281 L 194 269.488281 Z M 194 154 "
         clip-rule="nonzero"
         id="path23" />
    </clipPath>
    <clipPath
       id="b369271fb5">
      <path
         d="M 87.488281 151 L 178 151 L 178 269 L 87.488281 269 Z M 87.488281 151 "
         clip-rule="nonzero"
         id="path26" />
    </clipPath>
    <clipPath
       id="b25e055760">
      <path
         d="M 191 154 L 287.738281 154 L 287.738281 269.488281 L 191 269.488281 Z M 191 154 "
         clip-rule="nonzero"
         id="path29" />
    </clipPath>
    <clipPath
       id="9c7cb070b4">
      <path
         d="M 87.488281 151 L 182 151 L 182 269 L 87.488281 269 Z M 87.488281 151 "
         clip-rule="nonzero"
         id="path32" />
    </clipPath>
  </defs>
  <g
     clip-path="url(#01a549b0d0)"
     id="g51">
    <g
       transform="matrix(1, 0, 0, 1, 0, 0)"
       id="g49">
      <g
         clip-path="url(#29adc4607d)"
         id="g47">
        <g
           clip-path="url(#ad8ab067f6)"
           id="g45">
          <g
             clip-path="url(#4ac2956cd9)"
             id="g43">
            <rect
               x="-82.5"
               width="540"
               fill="#417dbc"
               height="539.999987"
               y="-82.499998"
               fill-opacity="1"
               id="rect41" />
          </g>
        </g>
      </g>
    </g>
  </g>
  <g
     clip-path="url(#fe5cf3eaad)"
     id="g55">
    <path
       fill="#fedc07"
       d="M 183.667969 212.253906 L 183.601562 212.207031 C 169.511719 201.753906 155.097656 191.066406 144.433594 180.144531 C 133.757812 169.210938 126.378906 157.585938 125.316406 145.136719 C 124.265625 132.835938 129.441406 120.171875 136.949219 113.074219 C 143.167969 107.195312 150.753906 105.3125 157.519531 105.3125 C 159.179688 105.3125 160.800781 105.425781 162.355469 105.621094 C 170.269531 106.621094 176.734375 109.824219 181.640625 114.335938 C 186.46875 118.78125 189.65625 124.410156 192.53125 129.433594 L 186.136719 129.523438 C 189.558594 123.140625 193.480469 115.65625 200.699219 111.09375 C 205.269531 108.207031 211 106.566406 216.9375 106.566406 C 220.421875 106.566406 224.011719 107.132812 227.507812 108.367188 C 236.875 111.679688 245.601562 119.84375 248.144531 131.097656 C 250.648438 142.183594 246.976562 155.578125 240.878906 166.277344 C 234.695312 177.128906 225.828125 185.578125 217.082031 192.503906 C 208.433594 199.351562 199.683594 204.871094 194.804688 207.953125 L 194.632812 208.0625 C 189.792969 211.121094 188.8125 211.753906 187.839844 212.386719 C 186.558594 213.21875 184.894531 213.164062 183.667969 212.253906 M 188.027344 206.378906 L 183.859375 206.25 C 184.867188 205.59375 185.875 204.941406 190.726562 201.878906 L 190.898438 201.769531 C 195.777344 198.6875 204.226562 193.347656 212.539062 186.765625 C 220.953125 180.105469 229.003906 172.339844 234.523438 162.652344 C 240.132812 152.8125 242.957031 141.335938 241.007812 132.710938 C 239.097656 124.253906 232.421875 117.867188 225.070312 115.265625 C 222.394531 114.320312 219.636719 113.882812 216.9375 113.882812 C 212.300781 113.882812 207.941406 115.171875 204.605469 117.28125 C 199.292969 120.636719 196.1875 126.257812 192.582031 132.980469 C 191.953125 134.152344 190.738281 134.890625 189.40625 134.910156 C 188.078125 134.925781 186.84375 134.222656 186.183594 133.066406 C 183.207031 127.867188 180.542969 123.269531 176.6875 119.71875 C 172.910156 116.246094 167.859375 113.691406 161.4375 112.878906 C 160.164062 112.71875 158.851562 112.628906 157.519531 112.628906 C 152.082031 112.628906 146.488281 114.125 141.976562 118.390625 C 136.125 123.921875 131.742188 134.386719 132.605469 144.511719 C 133.457031 154.484375 139.46875 164.585938 149.667969 175.03125 C 159.84375 185.457031 173.734375 195.777344 187.960938 206.332031 Z M 188.027344 206.378906 "
       fill-opacity="1"
       fill-rule="nonzero"
       id="path53" />
  </g>
  <path
     fill="#fedc07"
     d="M 149.699219 147.976562 L 149.636719 147.300781 C 150.4375 151.550781 151.152344 155.234375 153.621094 159.378906 C 156.191406 163.703125 160.753906 168.675781 164.351562 171.882812 C 167.792969 174.953125 170.164062 176.242188 172.738281 177.640625 C 174.515625 178.605469 175.171875 180.828125 174.207031 182.601562 C 173.242188 184.378906 171.019531 185.035156 169.246094 184.070312 C 166.503906 182.578125 163.554688 180.972656 159.480469 177.34375 C 155.566406 173.847656 150.417969 168.308594 147.332031 163.121094 C 144.140625 157.753906 143.25 152.917969 142.445312 148.65625 C 142.40625 148.433594 142.382812 148.207031 142.382812 147.976562 C 142.382812 145.957031 144.019531 144.320312 146.042969 144.320312 C 148.0625 144.320312 149.699219 145.957031 149.699219 147.976562 Z M 149.699219 147.976562 "
     fill-opacity="1"
     fill-rule="nonzero"
     id="path57" />
  <g
     clip-path="url(#be58336441)"
     id="g61">
    <path
       fill="#fedc07"
       d="M 158 105.316406 C 151.113281 105.226562 143.316406 107.054688 136.949219 113.074219 C 129.441406 120.171875 124.265625 132.835938 125.316406 145.136719 C 126.378906 157.585938 133.757812 169.210938 144.433594 180.144531 C 155.113281 191.085938 169.554688 201.785156 183.667969 212.253906 C 184.300781 212.722656 185.046875 212.964844 185.800781 212.976562 C 186.5 212.984375 187.207031 212.792969 187.824219 212.394531 L 187.839844 212.386719 C 188.808594 211.757812 189.796875 211.117188 194.605469 208.078125 C 194.605469 208.078125 194.621094 208.070312 194.632812 208.0625 L 194.804688 207.953125 C 199.683594 204.871094 208.433594 199.347656 217.082031 192.503906 C 225.828125 185.578125 234.695312 177.128906 240.878906 166.277344 C 246.976562 155.578125 250.648438 142.183594 248.144531 131.097656 C 245.601562 119.84375 236.875 111.679688 227.507812 108.367188 C 224.152344 107.183594 220.710938 106.613281 217.359375 106.570312 C 211.269531 106.488281 205.375 108.140625 200.699219 111.09375 C 195.542969 114.351562 192.070312 119.101562 189.257812 123.875 C 187.160156 120.523438 184.738281 117.1875 181.640625 114.335938 C 176.734375 109.824219 170.269531 106.621094 162.351562 105.621094 C 160.953125 105.445312 159.492188 105.335938 158 105.316406 Z M 157.90625 112.632812 C 159.105469 112.648438 160.289062 112.734375 161.4375 112.878906 C 167.859375 113.691406 172.910156 116.246094 176.6875 119.71875 C 180.542969 123.269531 183.207031 127.867188 186.183594 133.066406 C 186.828125 134.195312 188.019531 134.890625 189.308594 134.910156 C 189.34375 134.910156 189.375 134.910156 189.410156 134.910156 C 190.738281 134.890625 191.953125 134.152344 192.582031 132.980469 C 196.1875 126.257812 199.292969 120.636719 204.605469 117.28125 C 208.019531 115.121094 212.507812 113.820312 217.261719 113.882812 C 219.859375 113.917969 222.503906 114.359375 225.070312 115.265625 C 232.421875 117.867188 239.097656 124.253906 241.007812 132.710938 C 242.957031 141.335938 240.132812 152.8125 234.523438 162.652344 C 229.003906 172.339844 220.953125 180.105469 212.539062 186.765625 C 204.230469 193.347656 195.777344 198.6875 190.898438 201.769531 L 190.726562 201.875 C 190.703125 201.890625 190.679688 201.90625 190.679688 201.90625 C 188.398438 203.347656 186.972656 204.25 185.996094 204.875 C 172.460938 194.824219 159.375 184.976562 149.667969 175.03125 C 139.46875 164.585938 133.457031 154.484375 132.605469 144.511719 C 131.738281 134.386719 136.121094 123.921875 141.976562 118.390625 C 146.59375 114.023438 152.347656 112.558594 157.90625 112.632812 Z M 157.90625 112.632812 "
       fill-opacity="1"
       fill-rule="nonzero"
       id="path59" />
  </g>
  <path
     fill="#fedc07"
     d="M 146.089844 144.320312 C 144.070312 144.292969 142.410156 145.910156 142.382812 147.929688 C 142.382812 148.171875 142.402344 148.417969 142.445312 148.65625 C 143.25 152.917969 144.140625 157.753906 147.332031 163.121094 C 150.417969 168.308594 155.566406 173.847656 159.480469 177.34375 C 163.554688 180.972656 166.503906 182.578125 169.246094 184.070312 C 169.785156 184.363281 170.367188 184.503906 170.941406 184.511719 C 172.253906 184.53125 173.535156 183.835938 174.207031 182.601562 C 175.171875 180.828125 174.515625 178.605469 172.738281 177.640625 C 170.164062 176.242188 167.792969 174.953125 164.351562 171.882812 C 160.753906 168.675781 156.191406 163.703125 153.621094 159.378906 C 151.175781 155.269531 150.449219 151.617188 149.65625 147.410156 C 149.386719 145.679688 147.898438 144.34375 146.089844 144.320312 Z M 146.089844 144.320312 "
     fill-opacity="1"
     fill-rule="nonzero"
     id="path63" />
  <g
     clip-path="url(#c582709a52)"
     id="g67">
    <path
       fill="#fedc07"
       d="M 193.234375 265.675781 L 193.113281 263.695312 L 193.125 263.84375 C 191.851562 251.3125 190.109375 236.371094 196.707031 227.253906 C 200.976562 221.347656 208.441406 218.296875 214.488281 215.730469 C 218.160156 214.171875 221.464844 212.757812 224.222656 211.019531 C 228.859375 208.09375 232.160156 204.097656 235.300781 200.257812 C 237.136719 198.011719 239.097656 195.585938 241.199219 193.878906 C 244.121094 191.507812 247.277344 190.507812 250.289062 190.507812 C 253.28125 190.507812 255.957031 191.492188 258.007812 192.804688 C 263.042969 196.027344 264.265625 201.324219 259.804688 208.296875 C 259.632812 208.5625 259.453125 208.835938 259.265625 209.109375 C 254.785156 215.648438 244.664062 225.210938 235.09375 234.289062 C 233.625 235.679688 231.3125 235.617188 229.921875 234.148438 C 228.53125 232.683594 228.59375 230.367188 230.058594 228.980469 C 239.953125 219.597656 249.304688 210.703125 253.230469 204.972656 C 253.378906 204.757812 253.515625 204.550781 253.640625 204.351562 C 256.425781 200.003906 254.964844 199.542969 254.066406 198.964844 C 253.003906 198.289062 251.675781 197.824219 250.289062 197.824219 C 248.980469 197.824219 247.445312 198.230469 245.808594 199.558594 C 244.414062 200.691406 242.957031 202.449219 240.964844 204.886719 C 237.890625 208.644531 233.90625 213.558594 228.125 217.207031 C 224.773438 219.320312 220.890625 220.960938 217.347656 222.464844 C 210.742188 225.265625 205.472656 227.617188 202.632812 231.542969 C 198.058594 237.863281 199 249.28125 200.402344 263.105469 C 200.410156 263.152344 200.414062 263.203125 200.414062 263.25 L 200.535156 265.230469 C 200.660156 267.246094 199.125 268.980469 197.105469 269.105469 C 195.089844 269.226562 193.355469 267.691406 193.234375 265.675781 Z M 193.234375 265.675781 "
       fill-opacity="1"
       fill-rule="nonzero"
       id="path65" />
  </g>
  <path
     fill="#fedc07"
     d="M 179.257812 265.492188 L 179.429688 263.519531 L 179.414062 263.664062 C 181.015625 251.167969 183.148438 236.28125 176.792969 226.996094 C 172.675781 220.980469 165.296875 217.730469 159.316406 215.007812 C 155.691406 213.355469 152.421875 211.855469 149.710938 210.042969 C 145.152344 207 141.957031 202.917969 138.917969 198.996094 C 137.144531 196.703125 135.242188 194.226562 133.1875 192.464844 C 130.328125 190.019531 127.199219 188.9375 124.191406 188.855469 C 121.199219 188.777344 118.496094 189.695312 116.414062 190.953125 C 111.296875 194.042969 109.9375 199.308594 114.210938 206.390625 C 114.375 206.664062 114.550781 206.9375 114.730469 207.21875 C 119.039062 213.875 128.902344 223.695312 138.234375 233.019531 C 139.664062 234.449219 141.980469 234.449219 143.410156 233.019531 C 144.835938 231.589844 144.835938 229.273438 143.40625 227.84375 C 133.761719 218.207031 124.644531 209.070312 120.871094 203.242188 C 120.730469 203.023438 120.597656 202.8125 120.476562 202.609375 C 117.808594 198.191406 119.277344 197.765625 120.191406 197.214844 C 121.269531 196.566406 122.609375 196.132812 124 196.171875 C 125.308594 196.203125 126.828125 196.65625 128.429688 198.023438 C 129.796875 199.195312 131.207031 200.988281 133.136719 203.476562 C 136.109375 207.316406 139.960938 212.332031 145.644531 216.128906 C 148.941406 218.328125 152.78125 220.066406 156.285156 221.664062 C 162.816406 224.640625 168.019531 227.125 170.757812 231.125 C 175.164062 237.5625 173.925781 248.953125 172.160156 262.734375 C 172.152344 262.785156 172.148438 262.832031 172.144531 262.882812 L 171.972656 264.855469 C 171.796875 266.871094 173.285156 268.644531 175.296875 268.820312 C 177.308594 268.996094 179.082031 267.503906 179.257812 265.492188 Z M 179.257812 265.492188 "
     fill-opacity="1"
     fill-rule="nonzero"
     id="path69" />
  <g
     clip-path="url(#cbde6c5bfc)"
     id="g73">
    <path
       fill="#fedc07"
       d="M 202.195312 265.644531 L 198.585938 261.988281 L 228.160156 262.375 L 224.527344 265.304688 C 225.613281 259.953125 226.859375 253.480469 233.011719 247.828125 C 235.847656 245.222656 239.683594 242.851562 243.324219 240.585938 C 247.300781 238.109375 251.234375 235.652344 254.542969 232.777344 C 260.941406 227.226562 265.285156 219.863281 268.871094 212.78125 C 272.417969 205.78125 274.976562 199.570312 277.011719 191.746094 C 279.089844 183.746094 280.539062 174.382812 280.121094 168.273438 C 279.671875 161.785156 277.554688 161.386719 277.03125 161.378906 C 277.027344 161.378906 277.015625 161.378906 277.011719 161.378906 C 275.0625 161.378906 271.15625 163.660156 269.300781 167.640625 C 268.042969 170.34375 267.792969 173.753906 267.539062 178.027344 C 267.441406 179.726562 267.332031 181.550781 267.117188 183.332031 C 266.375 189.40625 264.386719 194.632812 262.582031 199.421875 C 261.867188 201.3125 259.757812 202.269531 257.867188 201.554688 C 255.976562 200.84375 255.023438 198.730469 255.738281 196.84375 C 257.578125 191.960938 259.238281 187.519531 259.855469 182.445312 C 260.039062 180.933594 260.132812 179.339844 260.238281 177.597656 C 260.46875 173.664062 260.710938 168.757812 262.671875 164.550781 C 265.367188 158.765625 271.453125 154.066406 277.011719 154.066406 C 277.039062 154.066406 277.074219 154.066406 277.101562 154.066406 C 284.097656 154.132812 286.945312 160.878906 287.417969 167.773438 C 287.917969 175.050781 286.242188 185.3125 284.09375 193.585938 C 281.898438 202.03125 279.121094 208.738281 275.398438 216.089844 C 271.714844 223.359375 266.847656 231.785156 259.339844 238.300781 C 255.515625 241.621094 251.078125 244.375 247.191406 246.796875 C 243.363281 249.175781 240.1875 251.171875 237.960938 253.214844 C 233.722656 257.109375 232.789062 261.371094 231.695312 266.761719 C 231.34375 268.484375 229.820312 269.710938 228.0625 269.691406 L 198.488281 269.304688 C 196.488281 269.277344 194.878906 267.648438 194.878906 265.644531 C 194.878906 263.625 196.515625 261.988281 198.535156 261.988281 C 200.554688 261.988281 202.195312 263.625 202.195312 265.644531 Z M 202.195312 265.644531 "
       fill-opacity="1"
       fill-rule="nonzero"
       id="path71" />
  </g>
  <g
     clip-path="url(#b369271fb5)"
     id="g77">
    <path
       fill="#fedc07"
       d="M 170.304688 265.226562 L 174.007812 261.667969 L 144.433594 261.28125 L 147.988281 264.304688 C 147.042969 258.925781 145.964844 252.421875 139.960938 246.609375 C 137.195312 243.933594 133.421875 241.460938 129.84375 239.101562 C 125.929688 236.519531 122.066406 233.960938 118.832031 231 C 112.582031 225.285156 108.433594 217.8125 105.03125 210.640625 C 101.667969 203.546875 99.273438 197.273438 97.441406 189.394531 C 95.574219 181.347656 94.371094 171.949219 94.953125 165.851562 C 95.566406 159.378906 97.695312 159.03125 98.21875 159.042969 C 98.222656 159.042969 98.234375 159.042969 98.238281 159.042969 C 100.1875 159.09375 104.03125 161.472656 105.78125 165.5 C 106.972656 168.238281 107.132812 171.648438 107.269531 175.929688 C 107.328125 177.628906 107.386719 179.460938 107.554688 181.242188 C 108.136719 187.335938 109.988281 192.613281 111.667969 197.449219 C 112.332031 199.359375 114.414062 200.367188 116.324219 199.703125 C 118.230469 199.039062 119.242188 196.957031 118.578125 195.046875 C 116.867188 190.121094 115.324219 185.636719 114.839844 180.550781 C 114.691406 179.03125 114.640625 177.433594 114.582031 175.691406 C 114.453125 171.753906 114.339844 166.84375 112.492188 162.585938 C 109.949219 156.730469 103.984375 151.875 98.429688 151.730469 C 98.402344 151.726562 98.367188 151.726562 98.339844 151.726562 C 91.34375 151.609375 88.324219 158.28125 87.667969 165.160156 C 86.976562 172.421875 88.382812 182.722656 90.316406 191.050781 C 92.289062 199.550781 94.890625 206.328125 98.421875 213.773438 C 101.914062 221.140625 106.554688 229.6875 113.894531 236.398438 C 117.628906 239.816406 121.992188 242.6875 125.816406 245.207031 C 129.578125 247.6875 132.699219 249.765625 134.875 251.867188 C 139.007812 255.871094 139.832031 260.15625 140.78125 265.570312 C 141.085938 267.300781 142.578125 268.570312 144.335938 268.59375 L 173.910156 268.980469 C 175.914062 269.007812 177.5625 267.421875 177.617188 265.417969 C 177.667969 263.398438 176.074219 261.71875 174.054688 261.667969 C 172.035156 261.613281 170.355469 263.207031 170.304688 265.226562 Z M 170.304688 265.226562 "
       fill-opacity="1"
       fill-rule="nonzero"
       id="path75" />
  </g>
  <g
     clip-path="url(#b25e055760)"
     id="g81">
    <path
       fill="#fedc07"
       d="M 277.136719 154.066406 C 277.125 154.066406 277.113281 154.066406 277.101562 154.066406 C 271.515625 154.011719 265.375 158.742188 262.671875 164.550781 C 260.710938 168.757812 260.46875 173.664062 260.238281 177.597656 C 260.132812 179.339844 260.039062 180.933594 259.855469 182.445312 C 259.425781 185.953125 258.503906 189.160156 257.363281 192.414062 C 255.453125 191.328125 253.085938 190.542969 250.464844 190.507812 C 247.40625 190.46875 244.183594 191.460938 241.199219 193.878906 C 239.097656 195.585938 237.132812 198.011719 235.300781 200.257812 C 232.160156 204.097656 228.859375 208.09375 224.222656 211.019531 C 221.464844 212.757812 218.160156 214.171875 214.488281 215.730469 C 208.441406 218.296875 200.976562 221.347656 196.707031 227.253906 C 190.121094 236.359375 191.847656 251.269531 193.121094 263.789062 L 193.234375 265.675781 C 193.351562 267.601562 194.9375 269.085938 196.832031 269.109375 C 196.925781 269.113281 197.015625 269.109375 197.105469 269.105469 C 197.171875 269.101562 197.234375 269.09375 197.296875 269.085938 C 197.675781 269.222656 198.078125 269.296875 198.488281 269.304688 L 228.0625 269.691406 C 229.820312 269.710938 231.34375 268.484375 231.695312 266.761719 C 232.789062 261.371094 233.722656 257.109375 237.960938 253.214844 C 240.1875 251.171875 243.363281 249.175781 247.191406 246.796875 C 251.078125 244.375 255.515625 241.621094 259.339844 238.300781 C 266.847656 231.785156 271.714844 223.359375 275.398438 216.089844 C 279.121094 208.738281 281.898438 202.03125 284.09375 193.585938 C 286.242188 185.3125 287.917969 175.050781 287.417969 167.773438 C 286.960938 161.117188 284.332031 154.609375 277.753906 154.09375 C 277.546875 154.078125 277.34375 154.066406 277.136719 154.066406 Z M 277.042969 161.378906 C 277.089844 161.382812 277.136719 161.382812 277.179688 161.386719 C 277.671875 161.425781 279.691406 162.023438 280.121094 168.273438 C 280.539062 174.382812 279.089844 183.746094 277.011719 191.746094 C 274.976562 199.570312 272.417969 205.78125 268.871094 212.78125 C 265.285156 219.863281 260.941406 227.226562 254.542969 232.777344 C 251.234375 235.652344 247.300781 238.109375 243.324219 240.585938 C 239.683594 242.851562 235.847656 245.222656 233.011719 247.828125 C 227.960938 252.46875 226.214844 257.664062 225.152344 262.335938 L 200.292969 262.011719 C 198.953125 248.675781 198.179688 237.695312 202.632812 231.542969 C 205.472656 227.617188 210.742188 225.265625 217.347656 222.464844 C 220.890625 220.960938 224.773438 219.320312 228.125 217.207031 C 233.90625 213.558594 237.890625 208.644531 240.964844 204.886719 C 242.957031 202.449219 244.414062 200.691406 245.808594 199.558594 C 247.476562 198.207031 249.039062 197.804688 250.371094 197.824219 C 251.730469 197.839844 253.027344 198.300781 254.066406 198.964844 C 254.964844 199.542969 256.425781 200.003906 253.640625 204.351562 C 253.515625 204.550781 253.375 204.757812 253.230469 204.972656 C 249.304688 210.703125 239.953125 219.597656 230.058594 228.980469 C 228.59375 230.367188 228.53125 232.683594 229.921875 234.148438 C 230.628906 234.894531 231.574219 235.277344 232.527344 235.289062 C 233.449219 235.304688 234.371094 234.96875 235.09375 234.289062 C 244.664062 225.210938 254.78125 215.648438 259.265625 209.109375 C 259.453125 208.832031 259.632812 208.5625 259.804688 208.296875 C 261.910156 205.003906 262.75 202.082031 262.519531 199.582031 C 262.539062 199.527344 262.5625 199.476562 262.582031 199.421875 C 264.386719 194.632812 266.375 189.40625 267.117188 183.332031 C 267.332031 181.550781 267.441406 179.726562 267.539062 178.027344 C 267.792969 173.753906 268.042969 170.34375 269.300781 167.640625 C 271.167969 163.632812 275.101562 161.363281 277.03125 161.378906 Z M 277.042969 161.378906 "
       fill-opacity="1"
       fill-rule="nonzero"
       id="path79" />
  </g>
  <g
     clip-path="url(#9c7cb070b4)"
     id="g85">
    <path
       fill="#fedc07"
       d="M 98.304688 151.726562 C 98.097656 151.722656 97.894531 151.726562 97.6875 151.738281 C 91.097656 152.082031 88.300781 158.515625 87.667969 165.160156 C 86.976562 172.421875 88.382812 182.722656 90.316406 191.050781 C 92.289062 199.550781 94.890625 206.328125 98.421875 213.773438 C 101.914062 221.140625 106.554688 229.6875 113.894531 236.398438 C 117.628906 239.816406 121.992188 242.6875 125.816406 245.207031 C 129.578125 247.6875 132.699219 249.765625 134.875 251.867188 C 139.007812 255.871094 139.832031 260.15625 140.78125 265.570312 C 141.085938 267.300781 142.578125 268.570312 144.335938 268.59375 L 173.910156 268.980469 C 174.320312 268.988281 174.722656 268.921875 175.105469 268.796875 C 175.167969 268.804688 175.234375 268.8125 175.296875 268.820312 C 175.390625 268.828125 175.480469 268.832031 175.570312 268.832031 C 177.46875 268.859375 179.089844 267.414062 179.257812 265.492188 L 179.421875 263.613281 C 181.023438 251.128906 183.140625 236.269531 176.792969 226.996094 C 172.679688 220.980469 165.296875 217.730469 159.316406 215.007812 C 155.691406 213.355469 152.421875 211.855469 149.710938 210.042969 C 145.152344 207 141.957031 202.917969 138.917969 198.996094 C 137.144531 196.703125 135.242188 194.226562 133.1875 192.464844 C 130.269531 189.96875 127.074219 188.894531 124.011719 188.851562 C 121.394531 188.820312 119.003906 189.539062 117.066406 190.578125 C 116.015625 187.292969 115.171875 184.066406 114.839844 180.546875 C 114.691406 179.03125 114.640625 177.433594 114.582031 175.691406 C 114.453125 171.753906 114.339844 166.84375 112.492188 162.585938 C 109.9375 156.707031 103.925781 151.820312 98.339844 151.726562 C 98.328125 151.726562 98.316406 151.726562 98.304688 151.726562 Z M 98.207031 159.039062 L 98.21875 159.039062 C 100.148438 159.074219 104.019531 161.445312 105.78125 165.5 C 106.972656 168.238281 107.132812 171.648438 107.269531 175.929688 C 107.328125 177.628906 107.386719 179.457031 107.554688 181.242188 C 108.136719 187.335938 109.988281 192.613281 111.667969 197.449219 C 111.6875 197.503906 111.707031 197.558594 111.726562 197.609375 C 111.429688 200.105469 112.195312 203.046875 114.210938 206.390625 C 114.375 206.664062 114.550781 206.9375 114.730469 207.214844 C 119.039062 213.871094 128.902344 223.695312 138.234375 233.019531 C 138.9375 233.722656 139.851562 234.078125 140.773438 234.089844 C 141.726562 234.101562 142.683594 233.746094 143.410156 233.019531 C 144.835938 231.589844 144.835938 229.273438 143.40625 227.84375 C 133.761719 218.207031 124.644531 209.070312 120.871094 203.242188 C 120.730469 203.023438 120.597656 202.8125 120.476562 202.609375 C 117.808594 198.191406 119.277344 197.765625 120.191406 197.214844 C 121.25 196.578125 122.558594 196.152344 123.917969 196.167969 C 125.25 196.1875 126.800781 196.628906 128.429688 198.023438 C 129.796875 199.191406 131.207031 200.988281 133.136719 203.476562 C 136.109375 207.3125 139.964844 212.332031 145.644531 216.128906 C 148.941406 218.328125 152.78125 220.066406 156.285156 221.664062 C 162.816406 224.640625 168.019531 227.125 170.757812 231.125 C 175.046875 237.390625 173.988281 248.351562 172.296875 261.644531 L 147.441406 261.320312 C 146.5 256.621094 144.890625 251.378906 139.960938 246.609375 C 137.195312 243.933594 133.421875 241.460938 129.84375 239.101562 C 125.933594 236.519531 122.066406 233.960938 118.832031 231 C 112.582031 225.285156 108.433594 217.8125 105.03125 210.640625 C 101.667969 203.546875 99.273438 197.273438 97.441406 189.394531 C 95.574219 181.34375 94.371094 171.945312 94.953125 165.851562 C 95.542969 159.613281 97.578125 159.070312 98.070312 159.042969 C 98.113281 159.039062 98.160156 159.039062 98.207031 159.039062 Z M 98.207031 159.039062 "
       fill-opacity="1"
       fill-rule="nonzero"
       id="path83" />
  </g>
</svg>
